<svg width="1920" height="1257" viewBox="0 0 1920 1257" fill="none" xmlns="http://www.w3.org/2000/svg">
<g opacity="0.3">
<path d="M2371 614.644C1866.46 477.55 1707.78 897.539 1361.11 876.968C1121.48 862.732 1062.17 562.753 845.464 547.307C497.153 522.489 260.138 1084.98 83.8827 1151.94" stroke="#000002" stroke-width="0.25" stroke-miterlimit="10"/>
<path d="M2369.6 615.878C1869.68 475.557 1709.06 896.044 1361.44 874.69C1122.31 860.217 1062.27 559.669 844.895 544.246C497.51 519.547 261.087 1079.83 84.0491 1146.91" stroke="#010103" stroke-width="0.25" stroke-miterlimit="10"/>
<path d="M2368.18 617.112C1872.89 473.54 1710.42 894.55 1361.8 872.412C1123.22 857.726 1062.34 556.584 844.325 541.186C497.936 516.605 262.036 1074.66 84.1912 1141.71" stroke="#020103" stroke-width="0.25" stroke-miterlimit="10"/>
<path d="M2366.78 618.369C1876.11 471.547 1711.72 893.055 1362.15 870.111C1124.14 855.092 1062.41 553.524 843.779 538.125C498.221 513.686 262.985 1069.51 84.3569 1136.59" stroke="#020204" stroke-width="0.25" stroke-miterlimit="10"/>
<path d="M2365.35 619.603C1879.34 469.531 1712.91 891.56 1362.49 867.833C1125.07 852.553 1062.5 550.439 843.21 535.04C498.577 510.72 263.934 1064.34 84.5233 1131.49" stroke="#030304" stroke-width="0.25" stroke-miterlimit="10"/>
<path d="M2363.88 620.837C1882.47 467.537 1714.31 889.33 1362.68 865.532C1125.85 849.516 1062.41 547.355 842.499 532.003C498.909 507.778 264.883 1059.19 84.6897 1126.36" stroke="#040405" stroke-width="0.25" stroke-miterlimit="10"/>
<path d="M2362.53 622.094C1885.77 465.497 1715.71 887.835 1363.2 863.254C1126.96 846.859 1062.65 544.294 842.095 528.943C499.265 504.836 265.832 1054.04 84.8318 1121.24" stroke="#050405" stroke-width="0.25" stroke-miterlimit="10"/>
<path d="M2361.11 623.328C1888.97 463.528 1717.01 886.198 1363.53 860.976C1127.89 844.225 1062.72 541.209 841.573 525.858C499.621 501.823 266.781 1048.87 84.9976 1116.13" stroke="#050506" stroke-width="0.25" stroke-miterlimit="10"/>
<path d="M2359.71 624.562C1892.2 461.487 1718.34 884.466 1363.89 858.675C1128.82 841.591 1062.81 538.125 840.98 522.797C499.977 498.952 267.73 1043.72 85.1638 1111.01" stroke="#060606" stroke-width="0.25" stroke-miterlimit="10"/>
<path d="M2358.28 625.796C1895.43 459.518 1719.67 882.829 1364.19 856.397C1129.72 838.958 1062.88 535.064 840.387 519.737C500.309 496.01 268.608 1038.55 85.3065 1105.91" stroke="#070707" stroke-width="0.25" stroke-miterlimit="10"/>
<path d="M2356.88 627.053C1898.63 457.501 1720.93 881.215 1364.57 854.119C1130.67 836.371 1062.95 531.98 839.865 516.676C500.593 493.068 269.652 1033.4 85.401 1100.78" stroke="#080708" stroke-width="0.25" stroke-miterlimit="10"/>
<path d="M2355.46 628.287C1901.86 455.508 1722.3 879.578 1365.05 851.818C1131.59 833.69 1063.05 528.895 839.296 513.686C501.044 490.126 270.6 1028.23 85.6382 1095.66" stroke="#080808" stroke-width="0.25" stroke-miterlimit="10"/>
<path d="M2354.04 629.521C1905.08 453.515 1723.63 877.965 1365.26 849.54C1132.54 831.057 1063.12 525.834 838.75 510.554C501.448 487.183 271.55 1023.08 85.8049 1090.56" stroke="#090909" stroke-width="0.25" stroke-miterlimit="10"/>
<path d="M2352.64 630.778C1908.29 451.498 1724.96 876.351 1365.66 847.238C1133.51 828.447 1063.24 522.75 838.228 507.494C501.756 484.241 272.499 1017.93 85.9703 1085.5" stroke="#0A0A09" stroke-width="0.25" stroke-miterlimit="10"/>
<path d="M2351.21 632.012C1911.51 449.624 1726.27 874.738 1365.97 844.96C1134.39 825.813 1063.29 519.665 837.611 504.433C502.112 481.299 273.448 1012.76 86.1129 1080.33" stroke="#0B0A0A" stroke-width="0.25" stroke-miterlimit="10"/>
<path d="M2349.81 633.246C1914.74 447.488 1727.59 873.148 1366.31 842.683C1135.32 823.203 1063.36 516.605 837.066 501.372C502.468 478.357 274.397 1007.61 86.2555 1075.21" stroke="#0B0B0A" stroke-width="0.25" stroke-miterlimit="10"/>
<path d="M2348.39 634.48C1917.85 445.495 1728.92 871.535 1366.66 840.381C1136.24 820.593 1063.43 513.52 836.497 498.311C502.824 475.415 275.346 1002.46 86.4456 1070.08" stroke="#0C0C0B" stroke-width="0.25" stroke-miterlimit="10"/>
<path d="M2346.97 635.737C1921.17 443.55 1730.11 869.921 1367.11 838.103C1137.29 817.959 1063.5 510.436 835.974 495.25C503.18 472.473 276.295 997.287 86.6115 1064.98" stroke="#0D0C0B" stroke-width="0.25" stroke-miterlimit="10"/>
<path d="M2345.57 637.066C1924.4 441.486 1731.56 868.331 1367.42 835.826C1138.19 815.349 1063.74 507.375 835.452 492.19C503.535 469.507 277.244 992.114 86.7534 1059.85" stroke="#0E0D0C" stroke-width="0.25" stroke-miterlimit="10"/>
<path d="M2344.14 638.205C1927.6 439.469 1732.79 866.718 1367.71 833.524C1139.04 812.645 1063.74 504.196 834.812 489.129C503.82 466.565 278.193 986.966 86.9198 1054.66" stroke="#0E0E0D" stroke-width="0.25" stroke-miterlimit="10"/>
<path d="M2342.74 639.439C1930.83 437.452 1734.21 865.105 1368.04 831.223C1139.97 810.106 1063.74 501.182 834.219 486.044C504.247 463.623 279.142 981.817 87.0857 1049.63" stroke="#0F0F0D" stroke-width="0.25" stroke-miterlimit="10"/>
<path d="M2341.32 640.696C1934.05 435.388 1735.52 863.539 1368.39 828.945C1140.89 807.52 1063.74 498.145 833.602 483.008C504.603 460.681 280.091 976.645 87.252 1044.5" stroke="#100F0E" stroke-width="0.25" stroke-miterlimit="10"/>
<path d="M2339.9 641.93C1937.25 433.466 1736.85 861.949 1368.75 826.667C1141.84 804.933 1063.9 495.061 833.151 479.923C504.959 457.738 281.04 971.614 87.394 1039.4" stroke="#11100E" stroke-width="0.25" stroke-miterlimit="10"/>
<path d="M2338.5 643.164C1940.48 431.449 1738.25 860.359 1369.08 824.389C1142.77 802.323 1063.97 491.976 832.582 476.862C505.315 454.796 281.989 966.323 87.6079 1034.28" stroke="#11110F" stroke-width="0.25" stroke-miterlimit="10"/>
<path d="M2337.07 644.421C1943.68 429.456 1739.5 858.769 1369.44 822.135C1143.69 799.761 1064.05 488.963 832.012 473.849C505.671 451.854 282.938 961.175 87.7262 1029.15" stroke="#12120F" stroke-width="0.25" stroke-miterlimit="10"/>
<path d="M2335.67 645.655C1946.91 427.463 1740.81 857.18 1369.79 819.763C1144.64 797.08 1064.16 485.783 831.49 470.693C506.027 448.912 283.887 956.002 87.8926 1024.05" stroke="#131210" stroke-width="0.25" stroke-miterlimit="10"/>
<path d="M2334.25 646.889C1950.14 425.446 1742.14 855.685 1370.13 817.532C1145.54 794.541 1064.21 482.841 830.897 467.68C506.383 445.97 284.836 950.854 88.0352 1018.93" stroke="#141310" stroke-width="0.25" stroke-miterlimit="10"/>
<path d="M2332.85 648.146C1953.43 423.524 1743.47 854.024 1370.48 815.231C1146.47 791.931 1064.28 479.686 830.351 464.619C506.738 443.028 285.785 945.705 88.2004 1013.82" stroke="#141411" stroke-width="0.25" stroke-miterlimit="10"/>
<path d="M2331.43 649.38C1956.57 421.436 1744.79 852.458 1370.81 812.953C1147.42 789.345 1064.38 476.601 829.877 461.558C507.094 440.133 286.734 940.532 88.3668 1008.7" stroke="#151512" stroke-width="0.25" stroke-miterlimit="10"/>
<path d="M2330 650.614C1959.89 419.443 1746.12 850.892 1371.17 810.652C1148.34 786.759 1064.45 473.517 829.213 458.498C507.427 437.143 287.683 935.407 88.5332 1003.57" stroke="#161512" stroke-width="0.25" stroke-miterlimit="10"/>
<path d="M2328.6 651.848C1963 417.426 1747.33 849.326 1371.5 808.445C1149.27 784.172 1064.52 470.456 828.667 455.437C507.782 434.201 288.632 930.211 88.6277 998.473" stroke="#171613" stroke-width="0.25" stroke-miterlimit="10"/>
<path d="M2327.18 653.105C1966.22 415.433 1748.76 847.665 1371.86 806.096C1150.19 781.586 1064.59 467.371 828.098 452.376C508.138 431.259 289.534 925.062 88.8416 993.348" stroke="#171713" stroke-width="0.25" stroke-miterlimit="10"/>
<path d="M2325.78 654.339C1969.45 413.417 1750.09 846.194 1372.21 803.818C1151.12 779.024 1064.69 464.311 827.552 449.339C508.565 428.27 290.53 919.89 89.0073 988.223" stroke="#181714" stroke-width="0.25" stroke-miterlimit="10"/>
<path d="M2324.36 655.573C1972.65 411.424 1751.41 844.628 1372.55 801.517C1152.04 776.414 1064.76 461.226 826.982 446.255C508.85 425.375 291.479 914.67 89.1737 983.122" stroke="#191814" stroke-width="0.25" stroke-miterlimit="10"/>
<path d="M2322.93 656.83C1975.88 409.407 1752.72 843.086 1372.9 799.191C1152.99 773.851 1064.83 458.142 826.484 443.194C509.206 422.433 292.428 909.592 89.3158 977.997" stroke="#1A1915" stroke-width="0.25" stroke-miterlimit="10"/>
<path d="M2321.53 658.064C1979.11 407.414 1754.14 841.52 1373.26 796.937C1153.89 771.265 1064.92 455.057 825.867 440.133C509.562 419.491 293.377 904.42 89.4822 972.896" stroke="#1A1A15" stroke-width="0.25" stroke-miterlimit="10"/>
<path d="M2320.11 659.298C1982.31 405.421 1755.45 839.978 1373.59 794.66C1154.84 768.702 1064.99 451.997 825.298 437.049C509.918 416.549 294.326 899.271 89.6479 967.771" stroke="#1B1A16" stroke-width="0.25" stroke-miterlimit="10"/>
<path d="M2318.8 660.532C1985.63 403.404 1756.78 838.483 1374.04 792.382C1155.77 766.116 1065.16 448.912 824.847 434.106C510.274 413.606 295.275 894.099 89.8143 962.669" stroke="#1C1B17" stroke-width="0.25" stroke-miterlimit="10"/>
<path d="M2317.29 661.789C1988.76 401.411 1758.01 836.87 1374.28 790.08C1156.69 763.554 1065.14 445.827 824.111 430.927C510.558 410.664 296.153 888.855 89.8851 957.663" stroke="#1D1C17" stroke-width="0.25" stroke-miterlimit="10"/>
<path d="M2315.86 663.023C1991.96 399.394 1759.34 835.327 1374.54 787.803C1157.52 760.991 1065.14 442.767 823.518 427.866C510.938 407.722 297.173 883.825 90.1222 952.419" stroke="#1D1D18" stroke-width="0.25" stroke-miterlimit="10"/>
<path d="M2314.46 664.257C1995.19 397.401 1760.67 833.785 1374.94 785.501C1158.5 758.405 1065.26 439.682 823.02 424.853C511.341 404.78 298.122 878.629 90.2886 947.318" stroke="#1E1D18" stroke-width="0.25" stroke-miterlimit="10"/>
<path d="M2313.04 665.538C1998.51 395.384 1761.97 832.267 1375.32 783.223C1159.42 755.842 1065.37 436.598 822.522 421.745C511.697 401.838 299.071 873.48 90.4548 942.193" stroke="#1F1E19" stroke-width="0.25" stroke-miterlimit="10"/>
<path d="M2311.69 666.748C2001.67 393.391 1763.35 830.724 1375.72 780.945C1160.39 753.327 1065.47 433.537 821.953 418.779C512.053 398.991 299.997 868.402 90.5975 937.187" stroke="#201F19" stroke-width="0.25" stroke-miterlimit="10"/>
<path d="M2310.22 667.911C2004.85 391.303 1764.53 829.253 1376.03 778.573C1161.32 750.646 1065.54 430.381 821.384 415.552C512.409 395.954 300.969 863.159 90.7633 931.967" stroke="#20201A" stroke-width="0.25" stroke-miterlimit="10"/>
<path d="M2308.79 669.216C2008 389.381 1766.01 827.664 1376.37 776.366C1162.27 748.155 1065.56 427.368 820.838 412.562C512.765 393.012 301.918 857.987 91.0005 926.842" stroke="#21201A" stroke-width="0.25" stroke-miterlimit="10"/>
<path d="M2307.39 670.473C2011.28 387.365 1767.26 826.145 1376.72 774.088C1163.19 745.616 1065.68 424.307 820.268 409.502C513.121 390.069 302.867 852.838 91.0005 921.788" stroke="#22211B" stroke-width="0.25" stroke-miterlimit="10"/>
<path d="M2305.97 671.707C2014.5 385.371 1768.57 824.627 1377.05 771.787C1164.12 743.054 1065.78 421.223 819.698 406.393C513.476 387.08 303.816 847.713 91.332 916.521" stroke="#23221C" stroke-width="0.25" stroke-miterlimit="10"/>
<path d="M2304.57 672.941C2017.71 383.473 1769.9 823.108 1377.41 769.509C1165.04 740.491 1065.85 418.138 819.153 403.38C513.833 384.161 304.765 842.517 91.4039 911.491" stroke="#23221C" stroke-width="0.25" stroke-miterlimit="10"/>
<path d="M2303.15 674.198C2020.93 381.362 1771.22 821.59 1377.86 767.208C1166.06 737.952 1066.01 415.077 818.678 400.319C514.188 381.219 305.714 837.368 91.5697 906.389" stroke="#24231D" stroke-width="0.25" stroke-miterlimit="10"/>
<path d="M2301.75 675.432C2024.16 379.369 1772.53 820.166 1378.1 764.93C1166.94 735.39 1066.01 411.993 818.038 397.164C514.544 378.182 306.663 832.101 91.7361 901.169" stroke="#25241D" stroke-width="0.25" stroke-miterlimit="10"/>
<path d="M2300.32 676.666C2027.36 377.352 1773.86 818.576 1378.45 762.652C1167.82 732.851 1066.11 408.909 817.469 394.174C514.9 375.335 307.636 827.047 91.8782 896.163" stroke="#26251E" stroke-width="0.25" stroke-miterlimit="10"/>
<path d="M2298.9 677.9C2030.59 375.359 1775.16 817.058 1378.81 760.446C1168.74 730.312 1066.11 405.848 816.994 391.113C515.256 372.393 308.585 821.874 92.0444 890.943" stroke="#26251E" stroke-width="0.25" stroke-miterlimit="10"/>
<path d="M2297.45 679.157C2033.82 373.342 1776.49 815.563 1379.14 758.073C1169.67 727.75 1066.23 402.763 816.353 388.053C515.683 369.451 309.534 816.726 92.2103 885.913" stroke="#27261F" stroke-width="0.25" stroke-miterlimit="10"/>
<path d="M2296.08 680.391C2037.02 371.325 1777.87 814.068 1379.5 755.7C1170.5 725.211 1066.32 399.797 815.784 384.992C515.944 366.509 310.436 811.553 92.3767 880.883" stroke="#28271F" stroke-width="0.25" stroke-miterlimit="10"/>
<path d="M2294.68 681.625C2040.25 369.332 1779.13 812.645 1379.83 753.494C1171.52 722.649 1066.39 396.618 815.167 381.931C516.229 363.566 311.361 806.404 92.4475 875.687" stroke="#292820" stroke-width="0.25" stroke-miterlimit="10"/>
<path d="M2293.25 682.882C2043.45 367.315 1780.43 811.007 1380.18 751.216C1172.45 720.11 1066.47 393.533 814.622 378.87C516.608 360.624 312.334 801.208 92.6376 870.585" stroke="#292820" stroke-width="0.25" stroke-miterlimit="10"/>
<path d="M2291.83 684.116C2046.68 365.322 1781.74 809.608 1380.54 748.914C1173.37 717.595 1066.56 390.449 814.099 375.81C517.011 357.682 313.33 796.036 92.8508 865.461" stroke="#2A2921" stroke-width="0.25" stroke-miterlimit="10"/>
<path d="M2290.33 685.35C2049.81 363.329 1782.97 808.113 1380.78 746.636C1174.3 715.056 1066.63 387.388 813.554 372.749C517.368 354.717 314.279 790.935 93.0172 860.336" stroke="#2B2A22" stroke-width="0.25" stroke-miterlimit="10"/>
<path d="M2289.01 686.584C2053.1 361.312 1784.37 806.642 1381.23 744.359C1175.25 712.517 1066.7 384.304 812.984 369.688C517.723 351.798 315.228 785.762 93.1593 855.353" stroke="#2C2A22" stroke-width="0.25" stroke-miterlimit="10"/>
<path d="M2287.61 687.841C2056.33 359.319 1785.67 805.147 1381.66 742.057C1176.12 709.978 1066.8 381.219 812.439 366.58C518.056 348.856 316.177 780.613 93.3732 850.109" stroke="#2C2B23" stroke-width="0.25" stroke-miterlimit="10"/>
<path d="M2286.18 689.075C2059.56 357.326 1787 803.676 1381.92 739.78C1177.05 707.464 1066.87 378.159 811.869 363.566C518.435 345.914 317.126 775.441 93.4915 845.008" stroke="#2D2C23" stroke-width="0.25" stroke-miterlimit="10"/>
<path d="M2284.76 690.309C2062.76 355.31 1788.31 802.205 1382.27 737.502C1177.97 704.925 1066.94 375.074 811.3 360.506C518.791 342.972 318.075 770.292 93.6573 839.788" stroke="#2E2D24" stroke-width="0.25" stroke-miterlimit="10"/>
<path d="M2283.36 691.638C2065.99 353.316 1789.73 800.781 1382.6 735.2C1178.9 702.41 1067.06 371.989 810.825 357.445C519.147 340.029 319.024 765.191 93.7999 834.758" stroke="#2F2D24" stroke-width="0.25" stroke-miterlimit="10"/>
<path d="M2281.94 692.8C2069.21 351.3 1790.82 799.286 1382.96 732.922C1179.82 699.871 1067.11 368.953 810.185 354.384C519.503 337.087 319.973 759.971 93.9663 829.657" stroke="#2F2E25" stroke-width="0.25" stroke-miterlimit="10"/>
<path d="M2280.54 694.01C2072.42 349.283 1792.25 797.792 1383.32 730.597C1180.75 697.38 1067.18 365.821 809.639 351.276C519.858 334.145 320.922 754.822 94.1321 824.508" stroke="#302F25" stroke-width="0.25" stroke-miterlimit="10"/>
<path d="M2279.11 695.268C2075.64 347.29 1793.55 796.368 1383.65 728.343C1181.67 694.817 1067.25 362.76 809.069 348.239C520.214 331.203 321.871 749.65 94.2979 819.431" stroke="#313026" stroke-width="0.25" stroke-miterlimit="10"/>
<path d="M2277.71 696.525C2078.87 345.226 1794.85 794.921 1384.03 726.065C1182.58 692.302 1067.34 359.675 808.5 345.226C520.57 328.308 322.82 744.549 94.3691 814.353" stroke="#323027" stroke-width="0.25" stroke-miterlimit="10"/>
<path d="M2276.29 697.759C2082.07 343.28 1796.16 793.473 1384.36 723.859C1183.5 689.787 1067.41 356.615 807.955 342.117C520.879 325.319 323.769 739.329 94.6068 809.18" stroke="#323127" stroke-width="0.25" stroke-miterlimit="10"/>
<path d="M2274.86 698.993C2085.3 341.287 1797.46 792.026 1384.69 721.486C1184.43 687.272 1067.49 353.53 807.503 339.057C521.4 322.448 324.836 734.18 94.891 804.103" stroke="#333228" stroke-width="0.25" stroke-miterlimit="10"/>
<path d="M2273.47 700.25C2088.53 339.27 1798.77 790.579 1385.05 719.232C1185.35 684.733 1067.56 350.445 806.839 335.996C521.638 319.387 325.667 729.031 94.9385 798.954" stroke="#343328" stroke-width="0.25" stroke-miterlimit="10"/>
<path d="M2272.04 701.484C2091.73 337.277 1800.08 789.131 1385.38 716.907C1186.25 682.147 1067.65 347.385 806.27 332.935C521.994 316.492 326.616 723.859 95.0811 793.853" stroke="#353329" stroke-width="0.25" stroke-miterlimit="10"/>
<path d="M2270.64 702.718C2094.96 335.284 1801.38 787.708 1385.69 714.582C1187.11 679.774 1067.72 344.3 805.701 329.874C522.35 313.55 327.565 718.71 95.2474 788.728" stroke="#353429" stroke-width="0.25" stroke-miterlimit="10"/>
<path d="M2269.22 703.952C2098.16 333.362 1802.68 786.284 1386.09 712.327C1188.11 677.212 1067.79 341.216 805.132 326.814C522.801 310.608 328.491 713.561 95.39 783.603" stroke="#36352A" stroke-width="0.25" stroke-miterlimit="10"/>
<path d="M2267.79 705.209C2101.39 331.274 1803.99 784.86 1386.42 709.955C1189.03 674.697 1067.89 338.108 804.585 323.871C523.061 307.666 329.463 708.389 95.5791 778.502" stroke="#37352A" stroke-width="0.25" stroke-miterlimit="10"/>
<path d="M2266.39 706.443C2104.61 329.186 1805.29 783.437 1386.78 707.772C1189.86 672.182 1067.96 335.071 804.04 320.692C523.417 304.724 330.412 703.216 95.7454 773.377" stroke="#38362B" stroke-width="0.25" stroke-miterlimit="10"/>
<path d="M2264.97 707.677C2107.82 327.264 1806.58 782.013 1387.14 705.47C1190.88 669.667 1068.05 331.986 803.494 317.631C523.797 301.782 331.361 698.068 95.9113 768.275" stroke="#38372C" stroke-width="0.25" stroke-miterlimit="10"/>
<path d="M2263.57 708.935C2111.04 325.248 1807.88 780.59 1387.47 703.193C1191.85 667.152 1068.1 328.925 802.925 314.571C524.129 298.84 332.31 692.919 96.0538 763.15" stroke="#39382C" stroke-width="0.25" stroke-miterlimit="10"/>
<path d="M2262.15 710.168C2114.27 323.255 1809.18 779.19 1387.82 700.915C1192.68 664.66 1068.2 325.841 802.355 311.51C524.485 295.874 333.259 687.746 96.2196 758.073" stroke="#3A382D" stroke-width="0.25" stroke-miterlimit="10"/>
<path d="M2260.72 711.402C2117.47 321.238 1810.49 777.837 1388.16 698.613C1193.61 662.145 1068.27 322.756 801.786 308.449C524.817 293.027 334.208 682.598 96.3622 752.924" stroke="#3B392D" stroke-width="0.25" stroke-miterlimit="10"/>
<path d="M2259.33 712.636C2120.7 319.245 1811.77 776.366 1388.61 696.336C1194.53 659.654 1068.34 319.696 801.241 305.364C525.173 289.989 335.157 677.402 96.5286 747.799" stroke="#3B3A2E" stroke-width="0.25" stroke-miterlimit="10"/>
<path d="M2257.9 713.893C2123.92 317.228 1813.08 774.966 1388.77 694.01C1195.44 657.139 1068.48 316.611 800.671 302.304C525.458 287.047 336.106 672.277 96.6943 742.674" stroke="#3C3B2E" stroke-width="0.25" stroke-miterlimit="10"/>
<path d="M2256.5 715.127C2127.13 315.235 1814.36 773.59 1389.2 691.756C1196.36 654.647 1068.48 313.527 800.125 299.243C525.885 284.105 337.055 667.009 96.8602 737.573" stroke="#3D3B2F" stroke-width="0.25" stroke-miterlimit="10"/>
<path d="M2255.08 716.361C2130.35 313.242 1815.66 772.309 1389.56 689.478C1197.26 652.132 1068.48 310.466 799.556 296.182C526.241 281.163 338.004 661.955 97.0028 732.448" stroke="#3E3C2F" stroke-width="0.25" stroke-miterlimit="10"/>
<path d="M2253.66 717.737C2133.58 311.344 1816.94 770.909 1389.89 687.296C1198.19 649.641 1068.65 307.381 798.987 293.027C526.597 278.221 338.954 656.807 97.1692 727.347" stroke="#3E3D30" stroke-width="0.25" stroke-miterlimit="10"/>
<path d="M2252.37 718.852C2136.78 309.232 1818.2 769.414 1390.24 684.899C1199.09 647.15 1068.74 304.297 798.441 290.061C526.952 275.279 339.902 651.634 97.335 722.222" stroke="#3F3E31" stroke-width="0.25" stroke-miterlimit="10"/>
<path d="M2250.83 720.11C2140.01 307.263 1819.53 768.038 1390.6 682.621C1200.01 644.659 1068.81 301.236 797.871 287C527.308 272.337 340.851 646.557 97.5009 717.097" stroke="#403E31" stroke-width="0.25" stroke-miterlimit="10"/>
<path d="M2249.43 721.32C2143.24 305.222 1820.81 766.662 1390.93 680.32C1200.92 642.167 1068.89 298.152 797.326 283.939C527.664 269.3 341.8 641.313 97.6434 711.995" stroke="#413F32" stroke-width="0.25" stroke-miterlimit="10"/>
<path d="M2248.01 722.483C2146.44 303.111 1822.11 765.191 1391.29 677.947C1201.84 639.676 1068.98 295.067 796.756 280.878C528.02 266.453 342.749 636.164 97.8092 706.87" stroke="#414032" stroke-width="0.25" stroke-miterlimit="10"/>
<path d="M2246.61 723.811C2149.67 301.212 1823.4 763.933 1391.64 675.741C1202.74 637.184 1068.98 292.006 796.139 277.818C528.328 263.581 343.651 630.992 97.928 701.769" stroke="#424033" stroke-width="0.25" stroke-miterlimit="10"/>
<path d="M2245.26 725.045C2152.94 299.196 1824.75 762.557 1392.05 673.463C1203.72 634.693 1069.12 288.922 795.641 274.757C528.732 260.521 344.648 625.914 98.1182 696.644" stroke="#434133" stroke-width="0.25" stroke-miterlimit="10"/>
<path d="M2243.76 726.279C2155.98 297.203 1825.96 761.205 1392.33 671.185C1204.57 632.321 1069.19 285.909 795.072 271.672C529.088 257.626 345.62 620.694 98.2839 691.638" stroke="#444234" stroke-width="0.25" stroke-miterlimit="10"/>
<path d="M2242.36 727.536C2159.32 295.186 1827.17 759.852 1392.66 668.884C1205.47 629.711 1069.29 282.777 794.526 268.635C529.443 254.684 346.569 615.522 98.4498 686.418" stroke="#444334" stroke-width="0.25" stroke-miterlimit="10"/>
<path d="M2240.94 728.77C2162.64 293.193 1828.52 758.5 1393.02 666.606C1206.4 627.219 1069.36 279.692 793.957 265.622C529.918 251.742 347.518 610.373 98.6162 681.293" stroke="#454335" stroke-width="0.25" stroke-miterlimit="10"/>
<path d="M2239.54 730.004C2165.75 291.2 1829.8 757.171 1393.38 664.328C1207.3 624.728 1069.43 276.608 793.387 262.49C530.155 248.8 348.467 605.201 98.782 676.191" stroke="#464436" stroke-width="0.25" stroke-miterlimit="10"/>
<path d="M2238.14 731.262C2169 289.183 1831.11 755.819 1393.73 662.027C1208.2 622.26 1069.53 273.547 792.842 259.429C530.511 245.858 349.416 600.052 98.9246 671.067" stroke="#474536" stroke-width="0.25" stroke-miterlimit="10"/>
<path d="M2236.69 732.495C2172.18 287.19 1832.44 754.49 1394.06 659.749C1209.01 619.769 1069.6 270.462 792.272 256.392C530.867 242.915 350.365 594.88 99.0903 665.941" stroke="#474637" stroke-width="0.25" stroke-miterlimit="10"/>
<path d="M2235.29 733.729C2175.41 285.292 1833.62 753.161 1394.42 657.447C1210.03 617.278 1069.67 267.378 791.798 253.308C531.223 239.973 351.314 589.731 99.2567 660.793" stroke="#484637" stroke-width="0.25" stroke-miterlimit="10"/>
<path d="M2233.87 734.963C2178.64 283.18 1834.81 752.544 1394.75 655.169C1210.83 615.095 1069.74 264.317 791.157 250.318C531.579 237.031 352.263 584.582 99.4231 655.715" stroke="#494738" stroke-width="0.25" stroke-miterlimit="10"/>
<path d="M2232.47 736.22C2181.84 281.163 1836.04 750.955 1395.11 652.892C1211.78 612.556 1069.83 261.233 790.588 247.163C531.982 234.065 353.212 579.338 99.5652 650.519" stroke="#4A4838" stroke-width="0.25" stroke-miterlimit="10"/>
<path d="M2231.02 737.454C2185.04 279.17 1837.32 749.555 1395.42 650.59C1212.73 609.994 1069.88 258.148 790.018 244.126C532.29 231.147 354.161 574.261 99.731 645.489" stroke="#4A4939" stroke-width="0.25" stroke-miterlimit="10"/>
<path d="M2229.62 738.688C2188.32 277.153 1838.68 748.06 1395.89 648.312C1213.63 607.431 1069.98 255.064 789.473 241.065C532.646 228.205 355.11 569.088 99.8973 640.364" stroke="#4B4939" stroke-width="0.25" stroke-miterlimit="10"/>
<path d="M2228.22 739.945C2191.49 275.16 1839.98 746.565 1396.15 646.035C1214.56 604.892 1070.07 252.003 788.927 237.933C533.002 225.263 356.059 563.94 100.063 635.263" stroke="#4C4A3A" stroke-width="0.25" stroke-miterlimit="10"/>
<path d="M-35.6688 615.854C78.2125 669.24 115.129 520.116 459.573 564.414C697.775 595.046 736.328 898.417 951.398 928.693C1297.17 977.38 1608.42 398.777 1999.87 341.833" stroke="#181100" stroke-width="0.25" stroke-miterlimit="10"/>
<path d="M-35.8114 614.739C72.9216 669.311 110.028 529.322 455.587 569.041C695.212 596.161 735.331 903.898 952.963 933.723C1298.4 981.58 1609.18 402.55 2001.12 349.496" stroke="#191202" stroke-width="0.25" stroke-miterlimit="10"/>
<path d="M-35.9297 613.624C67.6074 669.24 104.927 538.623 451.601 573.691C692.721 597.252 734.406 909.379 954.577 938.777C1299.61 985.851 1609.96 406.299 2002.38 357.089" stroke="#1B1403" stroke-width="0.25" stroke-miterlimit="10"/>
<path d="M-36.0723 612.509C62.3165 669.239 99.755 548.731 447.615 578.318C690.159 598.961 733.552 914.409 956.119 943.712C1300.92 989.22 1610.72 409.976 2003.64 364.777" stroke="#1C1505" stroke-width="0.25" stroke-miterlimit="10"/>
<path d="M-36.2144 611.393C57.0023 669.239 94.6543 558.245 443.629 582.921C687.644 600.194 732.651 919.7 957.709 948.789C1302.18 993.324 1611.48 413.844 2004.9 372.535" stroke="#1D1706" stroke-width="0.25" stroke-miterlimit="10"/>
<path d="M-36.3569 610.278C51.6876 669.239 89.5532 567.736 439.643 587.595C685.129 601.476 731.773 925.086 959.346 953.867C1303.36 997.358 1612.34 417.64 2006.22 380.199" stroke="#1F1808" stroke-width="0.25" stroke-miterlimit="10"/>
<path d="M-36.4995 609.163C46.3966 669.24 84.4994 577.227 435.634 592.246C682.59 602.781 730.847 930.448 960.84 958.897C1304.64 1001.39 1613.02 421.389 2007.41 387.934" stroke="#201A09" stroke-width="0.25" stroke-miterlimit="10"/>
<path d="M-36.6416 608.048C41.0824 669.239 79.375 586.694 431.672 596.873C680.099 603.991 729.97 935.811 962.454 963.927C1305.88 1005.45 1613.78 425.138 2008.74 395.574" stroke="#221B0B" stroke-width="0.25" stroke-miterlimit="10"/>
<path d="M-36.7842 606.933C35.7914 669.24 74.3925 596.161 427.662 601.476C677.608 605.248 728.973 941.125 964.019 968.91C1307.11 1009.58 1614.57 428.91 2009.92 403.238" stroke="#231D0C" stroke-width="0.25" stroke-miterlimit="10"/>
<path d="M-36.9261 605.818C30.4774 669.24 69.2445 609.922 423.676 606.15C675.164 603.469 728.167 946.535 965.609 973.916C1308.34 1013.59 1615.33 432.683 2011.16 410.925" stroke="#241E0E" stroke-width="0.25" stroke-miterlimit="10"/>
<path d="M-37.1157 604.702C25.1394 669.24 64.12 615.024 419.643 610.777C672.555 607.763 727.218 951.921 967.128 979.017C1309.53 1017.69 1616.04 436.455 2012.37 418.589" stroke="#26200F" stroke-width="0.25" stroke-miterlimit="10"/>
<path d="M-37.1157 603.587C19.9436 669.239 59.1852 624.443 415.776 615.451C670.111 608.997 726.34 957.378 968.836 984.047C1310.81 1021.77 1616.87 440.133 2013.67 426.277" stroke="#272111" stroke-width="0.25" stroke-miterlimit="10"/>
<path d="M-37.3296 602.472C14.5813 669.239 54.0365 633.839 411.719 620.054C667.525 610.207 725.438 962.693 970.331 989.077C1311.97 1025.9 1617.63 444.001 2014.93 433.869" stroke="#282312" stroke-width="0.25" stroke-miterlimit="10"/>
<path d="M-37.4717 601.476C9.26713 669.358 48.9832 643.353 407.733 624.823C665.153 611.393 724.466 968.079 971.92 994.108C1313.26 1030.01 1618.39 447.749 2016.19 441.628" stroke="#2A2414" stroke-width="0.25" stroke-miterlimit="10"/>
<path d="M-37.6143 600.242C3.97616 669.239 43.9295 652.607 403.676 629.331C662.566 612.604 723.564 973.37 973.415 999.138C1314.39 1034.16 1619.1 451.522 2017.33 449.292" stroke="#2B2615" stroke-width="0.25" stroke-miterlimit="10"/>
<path d="M-37.7563 599.103C-1.33804 669.239 38.8763 661.955 399.738 633.981C660.17 613.79 722.71 978.875 975.076 1004.12C1315.7 1038.29 1619.93 455.295 2018.7 456.979" stroke="#2D2717" stroke-width="0.25" stroke-miterlimit="10"/>
<path d="M-37.8989 597.988C-6.62901 669.168 33.8226 671.304 395.752 638.608C657.679 614.881 721.808 984.284 976.665 1009.2C1316.91 1042.44 1620.69 459.114 2019.87 464.643" stroke="#2E2918" stroke-width="0.25" stroke-miterlimit="10"/>
<path d="M-38.0415 596.873C-11.9437 669.239 28.7689 680.652 391.766 643.259C655.187 616.115 720.906 989.718 978.326 1014.32C1318.21 1046.71 1621.57 462.935 2021.31 472.425" stroke="#2F2A1A" stroke-width="0.25" stroke-miterlimit="10"/>
<path d="M-38.1836 595.757C-17.2342 669.311 23.7157 689.953 387.78 647.956C652.697 617.349 719.934 995.199 979.821 1019.33C1319.35 1050.79 1622.23 466.588 2022.48 479.994" stroke="#312B1C" stroke-width="0.25" stroke-miterlimit="10"/>
<path d="M-38.3024 594.642C-22.5488 669.239 18.6383 699.278 383.794 652.536C650.229 618.417 719.08 1000.56 981.386 1024.29C1320.66 1054.97 1623.01 470.361 2023.73 487.682" stroke="#322D1D" stroke-width="0.25" stroke-miterlimit="10"/>
<path d="M-38.4445 593.527C-27.8393 669.24 13.6088 708.555 379.809 657.163C647.738 619.556 718.155 1005.95 982.976 1029.32C1321.77 1059.14 1623.77 474.11 2024.99 495.464" stroke="#332E1F" stroke-width="0.25" stroke-miterlimit="10"/>
<path d="M-38.587 592.412C-33.1539 669.239 8.55513 717.832 375.823 661.789C645.247 620.694 717.348 1011.45 984.542 1034.35C1322.98 1063.34 1624.53 477.906 2026.25 503.033" stroke="#353020" stroke-width="0.25" stroke-miterlimit="10"/>
<path d="M-38.7296 591.297C-38.4449 669.24 3.50139 727.109 371.836 666.44C642.755 621.81 716.327 1016.91 986.131 1039.38C1324.19 1067.57 1625.31 481.797 2027.5 510.697" stroke="#363122" stroke-width="0.25" stroke-miterlimit="10"/>
<path d="M-38.8717 590.182C-43.7591 669.239 -1.52813 736.363 367.827 671.066C640.264 622.83 715.402 1022.37 987.816 1044.41C1325.43 1071.77 1626.03 485.451 2028.76 518.432" stroke="#383323" stroke-width="0.25" stroke-miterlimit="10"/>
<path d="M-39.0143 589.067C-49.0501 669.24 -6.62927 745.664 363.841 675.717C637.773 624.016 714.501 1027.82 989.287 1049.44C1326.64 1076.01 1626.83 489.2 2030.02 526.048" stroke="#393425" stroke-width="0.25" stroke-miterlimit="10"/>
<path d="M-39.1566 587.951C-54.3645 669.239 -11.6828 754.846 359.855 680.344C635.282 625.202 713.575 1033.3 990.876 1054.47C1327.78 1080.21 1627.62 492.973 2031.25 533.735" stroke="#3A3626" stroke-width="0.25" stroke-miterlimit="10"/>
<path d="M-39.2989 586.836C-59.6552 669.24 -16.7599 764.076 355.869 684.994C632.791 626.199 712.603 1038.76 992.561 1059.4C1329.18 1084.36 1628.4 496.65 2032.63 541.304" stroke="#3C3728" stroke-width="0.25" stroke-miterlimit="10"/>
<path d="M-39.4887 585.721C-65.0171 669.239 -21.8608 773.305 351.836 689.621C630.252 627.29 711.701 1044.24 993.985 1064.5C1330.22 1088.68 1629.09 500.494 2033.72 549.063" stroke="#3D3929" stroke-width="0.25" stroke-miterlimit="10"/>
<path d="M-39.4889 584.606C-70.3318 669.239 -26.8908 782.511 347.898 694.271C627.856 628.358 710.894 1049.75 995.598 1069.56C1331.48 1092.95 1629.92 504.195 2035.03 556.75" stroke="#3E3A2B" stroke-width="0.25" stroke-miterlimit="10"/>
<path d="M-39.7022 583.491C-75.5748 669.239 -31.9678 791.694 343.912 698.898C625.294 629.426 709.922 1055.23 997.306 1074.59C1332.81 1097.22 1630.77 508.039 2036.47 564.462" stroke="#403C2C" stroke-width="0.25" stroke-miterlimit="10"/>
<path d="M-39.8445 582.494C-80.8655 669.239 -37.1161 800.9 339.902 703.501C622.803 630.446 708.996 1060.71 998.753 1079.6C1333.9 1101.47 1631.44 511.788 2037.54 572.078" stroke="#413D2E" stroke-width="0.25" stroke-miterlimit="10"/>
<path d="M-39.9872 581.26C-86.1803 669.24 -42.1462 810.082 335.916 708.175C620.287 631.538 708.071 1066.24 1000.22 1084.65C1334.99 1105.77 1632.1 515.584 2038.68 579.789" stroke="#433F2F" stroke-width="0.25" stroke-miterlimit="10"/>
<path d="M-40.1288 580.121C-91.4941 669.216 -47.2464 819.217 331.931 712.778C617.702 632.582 707.146 1071.77 1001.91 1089.7C1336.44 1110.04 1633 519.357 2040.06 587.453" stroke="#444031" stroke-width="0.25" stroke-miterlimit="10"/>
<path d="M-40.2719 579.006C-96.7855 669.168 -52.3243 828.399 327.944 717.453C615.258 633.602 706.244 1077.27 1003.5 1094.71C1337.53 1114.33 1633.74 523.177 2041.22 595.141" stroke="#454232" stroke-width="0.25" stroke-miterlimit="10"/>
<path d="M-40.4139 577.891C-102.1 669.239 -57.4249 837.558 323.959 722.079C612.743 634.693 705.319 1082.8 1005.09 1099.74C1338.74 1118.72 1634.52 526.902 2042.57 602.804" stroke="#474334" stroke-width="0.25" stroke-miterlimit="10"/>
<path d="M-40.5564 576.776C-107.391 669.311 -62.526 846.716 320.068 726.73C610.299 635.666 704.417 1088.35 1006.75 1104.79C1340.04 1122.92 1635.47 530.604 2043.92 610.492" stroke="#484436" stroke-width="0.25" stroke-miterlimit="10"/>
<path d="M-40.6748 575.661C-112.705 669.239 -67.6267 855.851 315.987 731.356C607.808 636.686 703.492 1093.88 1008.24 1109.82C1341.16 1127.21 1636.04 534.423 2045.04 618.155" stroke="#494637" stroke-width="0.25" stroke-miterlimit="10"/>
<path d="M-40.8175 574.546C-117.996 669.239 -72.7517 864.986 312.001 735.888C605.151 637.588 702.567 1099.31 1009.81 1114.73C1342.34 1131.34 1636.82 538.172 2046.34 625.724" stroke="#4B4739" stroke-width="0.25" stroke-miterlimit="10"/>
<path d="M-40.9596 573.43C-123.31 669.239 -77.8524 874.121 307.992 740.633C602.612 638.727 701.642 1104.98 1011.4 1119.88C1343.55 1135.85 1637.58 541.969 2047.6 633.483" stroke="#4C493A" stroke-width="0.25" stroke-miterlimit="10"/>
<path d="M-41.1019 572.315C-128.601 669.24 -82.977 883.137 304.006 745.284C600.074 639.723 700.716 1110.68 1012.96 1124.91C1344.76 1140.08 1638.36 545.741 2048.86 641.194" stroke="#4E4A3C" stroke-width="0.25" stroke-miterlimit="10"/>
<path d="M-41.2446 571.2C-133.916 669.24 -88.1257 892.367 300.02 749.911C597.535 640.767 699.815 1116.11 1014.55 1129.94C1346.07 1144.49 1639.12 549.49 2050.12 648.929" stroke="#4F4C3D" stroke-width="0.25" stroke-miterlimit="10"/>
<path d="M-41.3868 570.085C-139.135 669.239 -93.2503 901.478 296.034 754.538C594.973 641.716 698.889 1121.69 1016.12 1134.97C1347.18 1148.83 1639.88 553.263 2051.35 656.546" stroke="#504D3F" stroke-width="0.25" stroke-miterlimit="10"/>
<path d="M-41.5293 568.97C-144.521 669.24 -98.47 910.637 292.048 759.188C592.434 642.713 697.964 1127.29 1017.71 1140.08C1348.44 1153.15 1640.66 557.035 2052.61 664.21" stroke="#524F40" stroke-width="0.25" stroke-miterlimit="10"/>
<path d="M-41.6711 567.855C-149.811 669.24 -103.523 919.676 288.11 763.815C589.896 643.686 697.039 1132.96 1019.3 1145.03C1349.6 1157.49 1641.42 560.808 2053.86 671.897" stroke="#535042" stroke-width="0.25" stroke-miterlimit="10"/>
<path d="M-41.8611 566.74C-155.173 669.239 -108.719 928.764 284.029 768.418C587.333 644.682 696.138 1138.46 1020.87 1150.06C1350.84 1161.93 1642.18 564.58 2055.12 679.561" stroke="#545243" stroke-width="0.25" stroke-miterlimit="10"/>
<path d="M-41.8609 565.625C-160.487 669.24 -113.843 937.851 280.067 773.092C584.771 645.655 695.26 1144.06 1022.46 1155.09C1352.05 1166.17 1642.97 568.258 2056.38 687.248" stroke="#565345" stroke-width="0.25" stroke-miterlimit="10"/>
<path d="M-42.0743 564.509C-165.73 669.24 -118.992 946.939 276.058 777.742C582.114 646.557 694.287 1149.68 1024.02 1160.12C1353.19 1170.54 1643.73 572.102 2057.64 694.936" stroke="#575546" stroke-width="0.25" stroke-miterlimit="10"/>
<path d="M-42.2167 563.513C-171.021 669.358 -124.496 955.409 272.096 782.488C579.386 647.245 693.362 1156.04 1025.61 1165.27C1354.44 1175.64 1644.48 575.993 2058.89 702.718" stroke="#595648" stroke-width="0.25" stroke-miterlimit="10"/>
<path d="M-42.3594 562.279C-176.336 669.239 -129.645 964.496 268.11 787.02C576.87 648.123 692.436 1161.43 1027.18 1170.18C1355.56 1179.75 1645.27 579.647 2060.2 710.287" stroke="#5A5849" stroke-width="0.25" stroke-miterlimit="10"/>
<path d="M-42.502 561.14C-181.627 669.24 -134.675 973.821 264.195 791.646C574.403 649.285 691.606 1166.89 1028.84 1175.21C1356.96 1183.97 1646.1 583.42 2061.48 717.951" stroke="#5B594B" stroke-width="0.25" stroke-miterlimit="10"/>
<path d="M-42.6441 560.049C-186.941 669.192 -139.775 983.075 260.138 796.273C571.817 650.353 690.633 1172.37 1030.33 1180.24C1358.1 1188.17 1646.79 587.24 2062.57 725.638" stroke="#5D5B4C" stroke-width="0.25" stroke-miterlimit="10"/>
<path d="M-42.7867 558.91C-192.256 669.24 -144.805 992.328 256.152 800.924C569.326 651.444 689.708 1177.85 1031.97 1185.3C1359.38 1192.42 1647.62 590.965 2064.02 733.326" stroke="#5E5C4E" stroke-width="0.25" stroke-miterlimit="10"/>
<path d="M2247.63 535.04C1796.85 207.61 1645.41 460.23 1298.81 437.926C1059.18 422.48 1010.66 313.313 794.123 294.616C446.097 264.554 190.647 591.985 99.5652 1035.8" stroke="#181100" stroke-width="0.25" stroke-miterlimit="10"/>
<path d="M2244.99 542.158C1798.6 211.24 1643.08 455.769 1296.24 435.388C1057.88 421.389 1008.31 315.259 792.177 296.586C444.958 266.619 189.887 587.643 97.1449 1028.56" stroke="#1A1301" stroke-width="0.25" stroke-miterlimit="10"/>
<path d="M2242.36 549.277C1800.38 214.728 1640.78 451.237 1293.47 432.801C1056.41 420.203 1005.78 317.133 790.019 298.531C443.819 268.707 189.129 583.301 94.7019 1021.16" stroke="#1C1503" stroke-width="0.25" stroke-miterlimit="10"/>
<path d="M2239.75 556.395C1802.14 218.406 1638.51 446.729 1290.74 430.239C1054.98 419.064 1003.29 319.031 787.931 300.477C442.68 270.795 188.274 578.959 92.2816 1013.82" stroke="#1E1704" stroke-width="0.25" stroke-miterlimit="10"/>
<path d="M2237.12 563.513C1803.97 222.083 1636.23 442.316 1288.11 427.771C1053.65 417.972 1000.89 321.001 785.914 302.541C441.565 272.882 187.61 574.617 89.8376 1006.49" stroke="#1F1806" stroke-width="0.25" stroke-miterlimit="10"/>
<path d="M2234.48 570.749C1805.67 225.713 1633.95 437.879 1285.47 425.233C1052.35 416.81 998.397 322.97 783.921 304.51C440.426 274.97 186.85 570.275 87.4178 999.161" stroke="#211A07" stroke-width="0.25" stroke-miterlimit="10"/>
<path d="M2231.85 577.891C1807.43 229.32 1631.6 433.3 1282.84 422.694C1051.04 415.576 996.073 324.915 781.928 306.432C439.288 277.058 186.092 565.885 84.9744 991.83" stroke="#231C09" stroke-width="0.25" stroke-miterlimit="10"/>
<path d="M2229.22 585.033C1809.28 232.95 1629.44 428.792 1280.06 420.155C1049.6 414.461 993.534 326.837 779.769 308.496C438.149 279.146 185.332 561.567 82.5541 984.498" stroke="#251E0A" stroke-width="0.25" stroke-miterlimit="10"/>
<path d="M2226.58 592.175C1811.08 236.557 1627.21 424.26 1277.41 417.616C1048.27 413.274 991.09 328.759 777.728 310.466C437.01 281.234 184.596 557.225 80.2051 977.19" stroke="#27200C" stroke-width="0.25" stroke-miterlimit="10"/>
<path d="M2223.9 599.316C1812.65 240.187 1624.91 419.752 1274.65 415.077C1046.89 412.064 988.551 330.705 775.593 312.459C435.894 283.322 183.79 552.883 77.6902 969.835" stroke="#29220D" stroke-width="0.25" stroke-miterlimit="10"/>
<path d="M2221.34 606.458C1814.48 243.793 1622.78 415.196 1272.04 412.539C1045.59 410.83 986.179 332.627 773.624 314.428C434.756 285.41 183.031 548.541 75.2467 962.503" stroke="#2B240E" stroke-width="0.25" stroke-miterlimit="10"/>
<path d="M2218.71 613.6C1816.25 247.424 1620.57 410.641 1269.36 410.024C1044.26 409.597 983.735 334.549 771.583 316.421C433.617 287.498 182.271 544.199 72.8264 955.195" stroke="#2C2510" stroke-width="0.25" stroke-miterlimit="10"/>
<path d="M2216.07 620.742C1818.01 251.03 1618.39 406.085 1266.68 407.485C1042.93 408.363 981.292 336.494 769.52 318.391C432.479 289.586 181.513 539.786 70.3834 947.887" stroke="#2E2711" stroke-width="0.25" stroke-miterlimit="10"/>
<path d="M2213.44 627.907C1819.77 254.66 1616.2 401.529 1264 404.875C1041.6 407.01 978.824 338.44 767.479 320.312C431.34 291.674 180.753 535.515 67.9631 940.532" stroke="#302913" stroke-width="0.25" stroke-miterlimit="10"/>
<path d="M2210.83 635.049C1821.55 258.29 1614.02 396.95 1261.32 402.407C1040.3 405.824 976.38 340.362 765.463 322.377C430.272 293.762 180.041 531.173 65.5667 933.201" stroke="#322B14" stroke-width="0.25" stroke-miterlimit="10"/>
<path d="M2208.2 642.191C1823.3 261.897 1611.79 392.371 1258.66 399.797C1038.99 404.543 973.96 342.212 763.375 324.275C429.086 295.803 179.235 526.76 63.0994 925.798" stroke="#342D16" stroke-width="0.25" stroke-miterlimit="10"/>
<path d="M2205.56 649.333C1825.06 265.527 1609.7 387.768 1255.91 397.425C1037.64 403.333 971.422 344.3 761.264 326.434C427.9 297.914 178.476 522.465 60.6559 918.537" stroke="#362F17" stroke-width="0.25" stroke-miterlimit="10"/>
<path d="M2202.93 656.474C1826.84 269.134 1607.57 383.189 1253.3 394.791C1036.36 401.909 969.026 346.151 759.27 328.356C426.808 300.05 177.716 518.171 58.2356 911.253" stroke="#373019" stroke-width="0.25" stroke-miterlimit="10"/>
<path d="M2200.3 663.616C1828.59 272.764 1605.43 378.443 1250.62 392.252C1035.08 400.58 966.582 348.073 757.135 330.301C425.669 302.09 176.957 513.686 55.8159 903.874" stroke="#39321A" stroke-width="0.25" stroke-miterlimit="10"/>
<path d="M2197.66 670.758C1830.35 276.418 1603.3 373.911 1247.94 389.713C1033.77 399.204 964.138 350.018 755.166 332.271C424.53 304.178 176.269 509.439 53.3718 896.543" stroke="#3B341B" stroke-width="0.25" stroke-miterlimit="10"/>
<path d="M2195.05 677.9C1832.06 280 1601.19 369.261 1245.26 387.175C1032.47 397.899 961.695 351.94 753.126 334.264C423.344 306.266 175.439 505.097 50.8575 889.235" stroke="#3D361D" stroke-width="0.25" stroke-miterlimit="10"/>
<path d="M2192.42 685.042C1833.88 283.536 1599.07 364.611 1242.58 384.636C1031.19 396.499 959.251 353.791 751.085 336.233C422.276 308.354 174.679 500.755 48.5081 881.951" stroke="#3F381E" stroke-width="0.25" stroke-miterlimit="10"/>
<path d="M2189.79 692.183C1835.64 287.237 1596.96 360.007 1239.9 382.097C1029.9 395.147 956.783 355.808 749.021 338.226C421.137 310.442 173.896 496.413 46.0883 874.572" stroke="#413A20" stroke-width="0.25" stroke-miterlimit="10"/>
<path d="M2187.15 699.325C1837.42 290.844 1594.88 355.286 1237.24 379.558C1028.62 393.795 954.34 357.73 746.981 340.219C419.999 312.53 173.138 492.071 43.5503 867.216" stroke="#433C21" stroke-width="0.25" stroke-miterlimit="10"/>
<path d="M2184.52 706.467C1839.17 294.474 1592.81 350.564 1234.56 377.02C1027.34 392.347 951.896 359.675 744.917 342.189C418.86 314.618 172.378 487.729 41.1775 859.909" stroke="#443D23" stroke-width="0.25" stroke-miterlimit="10"/>
<path d="M2181.89 713.609C1840.93 298.08 1590.7 345.843 1231.88 374.505C1026.06 390.924 949.547 361.597 742.876 344.182C417.745 316.753 171.666 483.387 38.8047 852.577" stroke="#463F24" stroke-width="0.25" stroke-miterlimit="10"/>
<path d="M2179.28 720.75C1842.71 301.711 1588.52 341.121 1229.2 371.966C1024.78 389.476 946.985 363.519 740.836 346.151C416.606 318.794 170.86 479.045 36.4325 845.245" stroke="#484126" stroke-width="0.25" stroke-miterlimit="10"/>
<path d="M2176.64 727.892C1844.49 305.341 1586.55 336.399 1226.52 369.427C1023.4 387.934 944.541 365.465 738.7 348.144C415.467 320.882 170.1 474.679 33.9172 837.914" stroke="#4A4327" stroke-width="0.25" stroke-miterlimit="10"/>
<path d="M2174.08 735.034C1846.29 308.947 1584.58 331.678 1223.91 366.888C1022.24 386.582 942.169 367.386 736.803 350.113C414.329 322.97 169.294 470.337 31.4974 830.582" stroke="#4C4528" stroke-width="0.25" stroke-miterlimit="10"/>
<path d="M2171.38 742.176C1847.98 312.578 1582.44 326.956 1221.15 364.35C1020.96 385.111 939.654 369.332 734.786 352.106C413.19 325.034 168.582 465.995 29.0535 823.25" stroke="#4E472A" stroke-width="0.25" stroke-miterlimit="10"/>
<path d="M2168.74 749.318C1849.76 316.184 1580.35 322.234 1218.5 361.811C1019.68 383.616 937.186 371.302 732.627 354.1C412.075 327.122 167.823 461.653 26.6337 815.943" stroke="#50492B" stroke-width="0.25" stroke-miterlimit="10"/>
<path d="M2166.13 756.459C1851.42 319.814 1578.34 317.323 1215.82 359.272C1018.42 382.121 934.742 373.176 730.586 356.069C410.935 329.21 167.063 457.311 24.1896 808.611" stroke="#514A2D" stroke-width="0.25" stroke-miterlimit="10"/>
<path d="M2163.5 763.601C1853.27 323.421 1576.2 312.506 1213.21 356.733C1017.21 380.602 932.37 375.121 728.594 358.062C409.868 331.298 166.304 452.969 21.8412 801.279" stroke="#534C2E" stroke-width="0.25" stroke-miterlimit="10"/>
<path d="M2160.86 770.743C1855.05 327.051 1574.26 307.69 1210.45 354.194C1015.91 379.06 929.855 377.043 726.458 360.031C408.658 333.362 165.545 448.627 19.3501 793.948" stroke="#554E30" stroke-width="0.25" stroke-miterlimit="10"/>
<path d="M2158.23 777.885C1856.8 330.657 1572.22 302.849 1207.77 351.656C1014.63 377.542 927.388 378.989 724.466 362.024C407.52 335.474 164.786 444.285 16.9066 786.545" stroke="#575031" stroke-width="0.25" stroke-miterlimit="10"/>
<path d="M2155.6 785.026C1858.53 334.287 1570.2 297.985 1205.09 349.117C1013.34 376.071 924.944 380.816 722.378 363.994C406.404 337.562 164.027 439.919 14.4863 779.213" stroke="#595233" stroke-width="0.25" stroke-miterlimit="10"/>
<path d="M2152.96 792.168C1860.34 337.894 1568.18 293.027 1202.41 346.578C1012.09 374.41 922.452 382.833 720.337 365.987C405.265 339.65 163.267 435.601 12.0422 771.953" stroke="#5B5434" stroke-width="0.25" stroke-miterlimit="10"/>
<path d="M2150.35 799.31C1862.09 341.524 1566.17 288.281 1199.73 344.039C1010.83 372.82 920.056 384.778 718.273 367.98C404.174 341.738 162.485 431.236 9.62256 764.621" stroke="#5D5635" stroke-width="0.25" stroke-miterlimit="10"/>
<path d="M2147.72 806.452C1863.85 345.226 1564.15 283.322 1197.07 341.524C1009.64 371.23 917.613 386.605 716.233 369.996C403.059 343.897 161.726 426.941 7.17908 757.337" stroke="#5E5737" stroke-width="0.25" stroke-miterlimit="10"/>
<path d="M2145.09 813.617C1865.65 348.761 1562.11 278.387 1194.39 338.985C1008.29 369.641 915.145 388.646 714.192 371.942C401.849 345.843 160.966 422.551 4.80627 749.982" stroke="#605938" stroke-width="0.25" stroke-miterlimit="10"/>
<path d="M2142.45 820.759C1867.38 352.344 1560.09 273.452 1191.71 336.447C1007.03 368.027 912.702 390.568 712.128 373.911C400.734 348.002 160.207 418.209 2.31519 742.65" stroke="#625B3A" stroke-width="0.25" stroke-miterlimit="10"/>
<path d="M2139.82 827.901C1869.14 355.998 1558.1 268.469 1189.03 333.908C1005.78 366.39 910.258 392.49 710.088 375.904C399.595 350.09 159.448 413.867 -0.104492 735.319" stroke="#645D3B" stroke-width="0.25" stroke-miterlimit="10"/>
<path d="M2137.21 835.043C1870.92 359.628 1556.08 263.487 1186.35 331.369C1004.52 364.753 907.814 394.435 708.024 377.874C398.456 352.178 158.688 409.525 -2.54858 727.987" stroke="#665F3D" stroke-width="0.25" stroke-miterlimit="10"/>
<path d="M2134.58 842.184C1872.77 363.234 1554.07 258.48 1183.67 328.83C1003.24 363.092 905.347 396.357 705.983 379.867C397.318 354.242 157.93 405.183 -4.96826 720.656" stroke="#68613E" stroke-width="0.25" stroke-miterlimit="10"/>
<path d="M2131.94 849.326C1874.43 366.864 1552.05 253.474 1180.99 326.244C1002.05 361.431 902.903 398.302 703.943 381.836C396.179 356.33 157.17 400.818 -7.41187 713.324" stroke="#696240" stroke-width="0.25" stroke-miterlimit="10"/>
<path d="M2129.31 856.468C1876.21 370.471 1550.11 248.42 1178.33 323.872C1000.72 359.865 900.46 400.343 701.879 383.948C395.064 358.536 156.411 396.618 -9.87915 706.111" stroke="#6B6441" stroke-width="0.25" stroke-miterlimit="10"/>
<path d="M2126.63 863.61C1877.96 374.101 1548.02 243.366 1175.65 321.214C999.441 358.062 898.063 402.146 699.838 385.822C393.924 360.506 155.651 392.157 -12.2761 698.756" stroke="#6D6642" stroke-width="0.25" stroke-miterlimit="10"/>
<path d="M2124.04 870.751C1879.72 377.708 1546 238.265 1172.87 318.675C998.089 356.353 895.453 404.092 697.679 387.792C392.691 362.594 154.797 387.792 -14.7909 691.329" stroke="#6F6844" stroke-width="0.25" stroke-miterlimit="10"/>
<path d="M2121.43 877.893C1881.5 381.338 1543.98 233.164 1170.29 316.137C996.903 354.645 893.105 406.014 695.782 389.69C391.695 364.587 154.181 383.355 -17.0918 683.903" stroke="#716A45" stroke-width="0.25" stroke-miterlimit="10"/>
<path d="M2118.8 885.035C1883.26 384.944 1541.94 228.039 1167.61 313.598C995.646 352.913 890.661 407.959 693.623 391.754C390.509 366.77 153.374 379.108 -19.5591 676.69" stroke="#736C47" stroke-width="0.25" stroke-miterlimit="10"/>
<path d="M2116.17 892.177C1885.01 388.575 1539.93 222.89 1164.93 311.059C994.364 351.181 888.17 409.881 691.63 393.747C389.393 368.953 152.686 374.766 -21.9794 669.358" stroke="#756E48" stroke-width="0.25" stroke-miterlimit="10"/>
<path d="M2113.53 899.319C1886.79 392.181 1537.89 217.718 1162.15 308.52C993.083 349.425 885.797 411.803 689.589 395.716C388.278 370.946 151.832 370.424 -24.5417 662.027" stroke="#766F4A" stroke-width="0.25" stroke-miterlimit="10"/>
<path d="M2110.9 906.461C1888.55 395.811 1535.87 212.521 1159.56 306.005C991.826 347.67 883.307 413.749 687.431 397.709C387.116 373.034 151.073 366.082 -26.8427 654.695" stroke="#78714B" stroke-width="0.25" stroke-miterlimit="10"/>
<path d="M2108.27 913.602C1890.3 399.441 1533.83 207.301 1156.88 303.466C990.521 345.914 880.839 415.671 685.461 399.702C385.977 375.121 150.314 361.834 -29.2867 647.363" stroke="#7A734D" stroke-width="0.25" stroke-miterlimit="10"/>
<path d="M2105.66 920.744C1892.13 403.048 1531.77 202.058 1154.27 300.928C989.31 344.11 878.466 417.616 683.492 401.672C384.838 377.209 149.554 357.398 -31.707 640.032" stroke="#7C754E" stroke-width="0.25" stroke-miterlimit="10"/>
<path d="M2103.02 927.886C1893.84 406.678 1529.73 196.791 1151.52 298.389C987.935 342.331 875.951 419.538 681.357 403.665C383.723 379.297 148.795 353.056 -34.1505 632.7" stroke="#7E7750" stroke-width="0.25" stroke-miterlimit="10"/>
<path d="M2100.39 935.028C1895.59 410.285 1527.66 191.476 1148.86 295.85C986.677 340.48 873.508 421.46 679.388 405.634C382.584 381.385 147.941 348.713 -36.5703 625.369" stroke="#807951" stroke-width="0.25" stroke-miterlimit="10"/>
<path d="M2097.76 942.169C1897.37 414.034 1525.6 186.256 1146.18 293.311C985.443 338.724 871.064 423.524 677.276 407.627C381.445 383.473 147.277 344.371 -39.0143 618.084" stroke="#827B52" stroke-width="0.25" stroke-miterlimit="10"/>
<path d="M2095.12 949.311C1899.13 417.521 1523.53 180.822 1143.5 290.773C984.091 336.898 868.62 425.328 675.235 409.597C380.307 385.561 146.518 340.006 -41.4341 610.729" stroke="#837C54" stroke-width="0.25" stroke-miterlimit="10"/>
<path d="M2092.51 956.453C1900.88 421.152 1521.45 175.46 1140.82 288.281C982.81 335.118 866.177 427.321 673.195 411.661C379.168 387.626 145.759 335.735 -43.8776 603.397" stroke="#857E55" stroke-width="0.25" stroke-miterlimit="10"/>
<path d="M2089.88 963.595C1902.66 424.758 1519.26 170.074 1138.16 285.695C981.576 333.149 863.709 429.195 671.131 413.559C378.076 389.713 144.999 331.322 -46.2979 596.066" stroke="#878057" stroke-width="0.25" stroke-miterlimit="10"/>
<path d="M2087.25 970.737C1904.42 428.388 1517.27 164.641 1135.48 283.156C980.2 331.369 861.266 431.117 669.091 415.552C376.914 391.825 144.24 326.98 -48.7413 588.758" stroke="#898258" stroke-width="0.25" stroke-miterlimit="10"/>
<path d="M2084.61 977.878C1906.17 431.995 1515.21 159.302 1132.8 280.617C978.895 329.495 858.822 433.062 667.027 417.545C375.775 393.818 143.481 322.638 -51.1611 581.403" stroke="#8B845A" stroke-width="0.25" stroke-miterlimit="10"/>
<path d="M2081.98 985.02C1907.95 435.625 1513.02 153.726 1130.17 278.079C977.614 327.62 856.426 434.984 665.152 419.514C374.636 395.977 142.722 318.296 -53.6051 574.071" stroke="#8D865B" stroke-width="0.25" stroke-miterlimit="10"/>
<path d="M2079.35 992.186C1909.71 439.35 1510.89 148.222 1127.44 275.635C976.262 325.841 853.911 436.977 662.946 421.602C373.497 398.16 141.962 314.048 -55.9303 566.834" stroke="#8E875D" stroke-width="0.25" stroke-miterlimit="10"/>
<path d="M2076.81 999.327C1911.54 442.862 1508.82 142.788 1124.83 273.025C974.933 323.872 851.467 438.852 660.882 423.524C372.382 400.153 141.179 309.635 -58.4689 559.408" stroke="#90895E" stroke-width="0.25" stroke-miterlimit="10"/>
<path d="M2074.1 1006.47C1913.24 446.516 1506.59 137.141 1122.08 270.486C973.581 321.973 849.023 440.774 658.842 425.47C371.244 402.17 140.42 305.27 -60.8412 552.076" stroke="#928B5F" stroke-width="0.25" stroke-miterlimit="10"/>
<path d="M2071.47 1013.61C1915 450.098 1504.41 131.684 1119.4 267.947C972.3 320.146 846.556 442.719 656.754 427.439C370.105 404.329 139.661 300.928 -63.2139 544.745" stroke="#948D61" stroke-width="0.25" stroke-miterlimit="10"/>
<path d="M2068.83 1020.75C1916.76 453.681 1502.23 125.942 1116.74 265.408C970.947 318.153 844.136 444.641 654.737 429.432C368.966 406.417 138.902 296.562 -65.7524 537.413" stroke="#968F62" stroke-width="0.25" stroke-miterlimit="10"/>
<path d="M2066.2 1027.89C1918.53 457.335 1500.02 120.295 1114.06 262.87C969.595 316.231 841.668 446.587 652.696 431.33C367.827 408.505 138.142 292.22 -68.1727 530.105" stroke="#989164" stroke-width="0.25" stroke-miterlimit="10"/>
<path d="M2063.59 1035.04C1920.22 460.965 1497.91 114.624 1111.38 260.331C968.266 314.286 839.225 448.509 650.632 433.395C366.712 410.593 137.383 287.878 -70.6162 522.774" stroke="#9A9365" stroke-width="0.25" stroke-miterlimit="10"/>
<path d="M2060.96 1042.18C1922.05 464.572 1495.54 108.93 1108.82 257.792C966.914 312.34 836.781 450.43 648.545 435.388C365.573 412.681 136.624 283.536 -73.036 515.442" stroke="#9B9467" stroke-width="0.25" stroke-miterlimit="10"/>
<path d="M2058.32 1049.32C1923.83 468.202 1493.33 103.212 1106.02 255.253C965.562 310.395 834.338 452.376 646.528 437.357C364.435 414.745 135.865 279.194 -75.4795 508.11" stroke="#9D9668" stroke-width="0.25" stroke-miterlimit="10"/>
<path d="M2055.69 1056.46C1925.58 471.808 1491.05 97.4224 1103.33 252.691C964.091 308.449 831.87 454.369 644.487 439.35C363.295 416.833 135.106 274.852 -77.8998 500.779" stroke="#9F986A" stroke-width="0.25" stroke-miterlimit="10"/>
<path d="M2053.08 1063.6C1927.34 475.439 1488.75 91.6331 1100.65 250.176C962.833 306.48 829.426 456.22 642.447 441.319C362.156 418.921 134.346 270.486 -80.3439 493.519" stroke="#A19A6B" stroke-width="0.25" stroke-miterlimit="10"/>
<path d="M2050.42 1070.75C1929.12 479.045 1486.45 85.8201 1098 247.637C961.457 304.582 826.982 458.165 640.383 443.312C361.042 421.009 133.706 266.168 -82.7635 486.116" stroke="#A39C6C" stroke-width="0.25" stroke-miterlimit="10"/>
<path d="M2047.81 1077.89C1930.87 482.675 1484.13 79.9596 1095.32 245.098C960.081 302.541 824.539 460.087 638.343 445.282C359.903 423.097 132.828 261.826 -85.2783 478.784" stroke="#A59E6E" stroke-width="0.25" stroke-miterlimit="10"/>
<path d="M2045.18 1085.03C1932.63 486.282 1481.75 74.0752 1092.63 242.56C958.681 300.572 822.166 462.033 636.279 447.275C358.764 425.185 132.069 257.436 -87.6273 471.452" stroke="#A7A06F" stroke-width="0.25" stroke-miterlimit="10"/>
<path d="M2042.55 1092.17C1934.45 489.959 1479.38 68.1672 1089.95 240.045C957.282 298.579 819.628 463.86 634.309 449.268C357.625 427.273 131.333 253.142 -90.0709 464.145" stroke="#A8A171" stroke-width="0.25" stroke-miterlimit="10"/>
<path d="M2039.91 1099.31C1936.16 493.542 1476.98 62.2118 1087.27 237.506C955.882 296.586 817.184 465.877 632.198 451.237C356.486 429.361 130.55 248.776 -92.4911 456.742" stroke="#AAA372" stroke-width="0.25" stroke-miterlimit="10"/>
<path d="M2037.28 1106.45C1937.92 497.077 1474.56 56.2326 1084.59 234.967C954.482 294.593 814.74 467.822 630.134 453.254C355.371 431.473 129.767 244.458 -94.9347 449.505" stroke="#ACA574" stroke-width="0.25" stroke-miterlimit="10"/>
<path d="M2034.65 1113.6C1939.75 500.779 1472.12 50.2298 1081.91 232.428C953.059 292.6 812.273 469.697 628.094 455.2C354.351 433.537 128.961 240.092 -97.3544 442.15" stroke="#AEA775" stroke-width="0.25" stroke-miterlimit="10"/>
<path d="M2032.04 1120.74C1941.57 504.385 1469.63 44.1795 1079.25 229.889C951.659 290.654 809.877 471.69 626.053 457.193C353.212 435.625 128.249 235.75 -99.798 434.818" stroke="#B0A977" stroke-width="0.25" stroke-miterlimit="10"/>
<path d="M2029.36 1127.88C1943.21 508.016 1467.07 38.1054 1076.57 227.351C950.211 288.566 807.504 473.612 623.989 459.115C351.979 437.76 127.49 231.337 -102.218 427.487" stroke="#B2AB78" stroke-width="0.25" stroke-miterlimit="10"/>
<path d="M2026.77 1135.02C1944.97 511.622 1464.69 32.0312 1073.89 224.812C948.788 286.502 804.942 475.533 621.949 461.155C350.816 439.801 126.731 227.066 -104.638 420.155" stroke="#B4AD79" stroke-width="0.25" stroke-miterlimit="10"/>
<path d="M2024.14 1142.16C1946.74 515.252 1462.04 25.8623 1071.21 222.273C947.341 284.532 802.498 477.479 619.884 463.148C349.606 441.889 125.971 222.724 -107.082 412.823" stroke="#B5AE7B" stroke-width="0.25" stroke-miterlimit="10"/>
<path d="M2021.5 1149.3C1948.5 518.859 1459.45 19.6696 1068.48 219.734C945.845 282.492 799.982 479.401 617.701 465.117C348.419 443.953 125.069 218.358 -109.645 405.492" stroke="#B7B07C" stroke-width="0.25" stroke-miterlimit="10"/>
<path d="M2018.89 1156.45C1950.26 522.489 1456.84 13.4768 1065.85 217.101C944.422 280.475 797.587 481.346 615.803 467.11C347.423 446.041 124.453 214.04 -111.946 398.184" stroke="#B9B27E" stroke-width="0.25" stroke-miterlimit="10"/>
<path d="M2016.26 1163.59C1952.04 526.095 1454.18 7.23667 1063.17 214.728C942.952 278.506 795.072 483.34 613.74 469.151C346.285 448.2 123.694 209.769 -114.365 390.852" stroke="#BBB47F" stroke-width="0.25" stroke-miterlimit="10"/>
<path d="M2013.63 1170.75C1953.79 529.726 1451.5 1.02028 1060.49 212.189C941.48 276.418 792.699 485.214 611.699 470.978C345.145 450.122 122.958 205.237 -116.81 383.426" stroke="#BDB681" stroke-width="0.25" stroke-miterlimit="10"/>
<path d="M2010.99 1177.9C1955.55 533.332 1448.7 -5.33851 1057.83 209.579C940.009 274.354 790.232 487.183 609.635 472.947C343.911 452.21 122.175 200.895 -119.23 376.094" stroke="#BFB882" stroke-width="0.25" stroke-miterlimit="10"/>
<path d="M2008.36 1185.16C1957.33 537.081 1446.07 -11.555 1055.15 207.159C938.515 272.432 787.788 489.176 607.595 475.273C342.892 454.369 121.416 196.648 -121.673 368.952" stroke="#C0B984" stroke-width="0.25" stroke-miterlimit="10"/>
<path d="M2005.63 1192.27C1959.08 540.593 1443.34 -18.0323 1052.47 204.526C936.996 270.273 785.344 491.003 605.554 477.028C341.753 456.481 120.657 192.306 -124.093 361.526" stroke="#C2BB85" stroke-width="0.25" stroke-miterlimit="10"/>
<path d="M2003.12 1199.39C1960.84 544.199 1440.42 -24.4387 1049.79 201.987C935.62 268.232 782.901 492.925 603.466 478.998C340.59 458.569 119.874 187.964 -126.56 354.194" stroke="#C4BD86" stroke-width="0.25" stroke-miterlimit="10"/>
<path d="M2000.48 1206.51C1962.62 547.829 1437.58 -30.8686 1047.13 199.448C934.007 266.168 780.457 494.847 601.474 480.991C339.476 460.657 119.115 183.622 -128.956 346.863" stroke="#C6BF88" stroke-width="0.25" stroke-miterlimit="10"/>
<path d="M1997.85 1213.63C1964.37 551.436 1434.66 -37.3461 1044.42 196.909C932.441 264.127 777.99 496.793 599.386 482.96C338.408 462.745 118.356 179.256 -131.353 339.531" stroke="#C8C189" stroke-width="0.25" stroke-miterlimit="10"/>
<path d="M1995.21 1220.75C1966.13 555.066 1431.74 -43.8947 1041.74 194.37C930.875 262.182 775.546 498.715 597.345 484.953C337.221 464.833 117.596 174.938 -133.821 332.2" stroke="#CAC38B" stroke-width="0.25" stroke-miterlimit="10"/>
<path d="M1992.58 1227.86C1967.91 558.767 1428.75 -50.3721 1039.09 191.832C929.357 260.023 773.102 500.66 595.423 486.922C336.082 466.921 116.837 170.596 -136.264 324.892" stroke="#CCC58C" stroke-width="0.25" stroke-miterlimit="10"/>
<path d="M1989.97 1234.98C1969.66 562.303 1425.74 -56.9207 1036.41 189.293C927.815 257.958 770.682 502.487 593.241 488.916C334.944 469.009 116.078 166.23 -138.684 317.56" stroke="#CDC68E" stroke-width="0.25" stroke-miterlimit="10"/>
<path d="M1987.34 1242.1C1971.42 565.885 1422.68 -63.5879 1033.72 186.683C926.249 255.823 768.191 504.433 591.2 490.814C333.805 471.097 115.319 161.888 -141.128 310.229" stroke="#CFC88F" stroke-width="0.25" stroke-miterlimit="10"/>
<path d="M1984.7 1249.22C1973.2 569.539 1419.62 -69.9942 1031.04 184.215C924.659 253.853 765.747 506.568 589.231 492.878C332.761 473.184 114.725 157.546 -143.453 302.897" stroke="#D1CA91" stroke-width="0.25" stroke-miterlimit="10"/>
<path d="M1982.07 1256.46C1974.95 573.122 1416.44 -76.7801 1028.32 181.629C923.046 251.742 763.256 508.324 587.025 494.823C331.48 475.201 113.729 153.157 -146.086 295.518" stroke="#D3CC92" stroke-width="0.25" stroke-miterlimit="10"/>
<path d="M2295.22 519.784C1795.59 290.512 1673.88 752.07 1327.23 729.767C1087.6 714.32 1039.09 605.153 822.546 586.457C474.567 556.395 309.534 655.003 107.608 539.786" stroke="#151102" stroke-width="0.25" stroke-miterlimit="10"/>
<path d="M2295.29 524.719C1799.15 291.579 1674.33 750.717 1327.3 731C1087.68 717.073 1037.85 608.688 821.953 589.28C474.14 557.866 308.656 651.848 107.062 538.671" stroke="#171303" stroke-width="0.25" stroke-miterlimit="10"/>
<path d="M2295.36 529.678C1802.71 292.623 1674.78 749.365 1327.09 732.258C1087.7 719.825 1036.36 612.224 820.837 592.103C473.689 559.337 307.731 648.668 106.493 537.532" stroke="#191505" stroke-width="0.25" stroke-miterlimit="10"/>
<path d="M2295.43 534.613C1806.34 293.691 1675.23 747.989 1327.09 733.492C1087.79 722.483 1035.05 615.712 820.031 594.927C473.333 560.831 306.9 645.513 105.995 536.44" stroke="#1B1706" stroke-width="0.25" stroke-miterlimit="10"/>
<path d="M2295.51 539.572C1809.83 294.735 1675.66 747.538 1327.09 734.725C1087.91 725.947 1033.77 619.294 819.367 597.75C472.978 562.302 306.046 642.333 105.449 535.325" stroke="#1D1808" stroke-width="0.25" stroke-miterlimit="10"/>
<path d="M2295.58 544.531C1813.46 295.803 1676.11 746.399 1326.92 735.983C1087.87 728.865 1032.32 622.83 818.346 600.598C472.503 563.797 305.168 639.154 104.927 534.163" stroke="#1E1A09" stroke-width="0.25" stroke-miterlimit="10"/>
<path d="M2295.65 549.443C1816.94 296.87 1676.56 745.237 1326.85 737.217C1087.94 731.736 1030.95 626.365 817.492 603.421C472.076 565.268 304.314 635.998 104.381 533.095" stroke="#201C0B" stroke-width="0.25" stroke-miterlimit="10"/>
<path d="M2295.72 554.401C1820.5 297.914 1677.01 744.216 1326.78 738.474C1087.98 734.631 1029.6 629.948 816.638 606.221C471.672 566.716 303.436 632.795 103.835 531.956" stroke="#221E0C" stroke-width="0.25" stroke-miterlimit="10"/>
<path d="M2295.79 559.337C1824.06 298.982 1677.46 742.935 1326.71 739.661C1088.03 737.454 1028.22 633.388 815.784 609.021C471.269 568.187 302.583 629.616 103.314 530.722" stroke="#24200D" stroke-width="0.25" stroke-miterlimit="10"/>
<path d="M2295.86 564.272C1827.69 300.145 1677.94 741.772 1326.64 740.942C1088.1 740.396 1026.8 637.422 814.93 611.892C470.771 570.441 301.705 626.484 102.863 529.749" stroke="#26220F" stroke-width="0.25" stroke-miterlimit="10"/>
<path d="M2295.93 569.231C1831.18 301.117 1678.39 740.61 1326.57 742.199C1088.17 743.267 1025.42 641.004 814.099 614.739C470.367 572.031 300.85 623.328 102.341 528.634" stroke="#282410" stroke-width="0.25" stroke-miterlimit="10"/>
<path d="M2295.98 574.166C1834.81 302.161 1678.86 739.424 1326.49 743.433C1088.22 746.138 1024.04 644.587 813.221 617.681C469.917 573.668 299.972 620.267 101.7 527.638" stroke="#2A2512" stroke-width="0.25" stroke-miterlimit="10"/>
<path d="M2296.05 579.101C1838.3 303.205 1679.34 738.261 1326.42 744.691C1088.29 749.009 1022.74 648.17 812.367 620.386C469.49 575.115 299.095 616.993 101.155 526.428" stroke="#2C2713" stroke-width="0.25" stroke-miterlimit="10"/>
<path d="M2296.12 584.06C1841.93 304.273 1679.81 737.075 1326.35 745.925C1088.36 751.88 1021.32 651.729 811.514 623.209C469.063 576.657 298.217 613.719 100.609 525.312" stroke="#2D2915" stroke-width="0.25" stroke-miterlimit="10"/>
<path d="M2296.19 588.995C1845.41 305.341 1680.29 735.888 1326.28 747.158C1088.44 754.751 1019.94 655.312 810.683 626.151C468.636 578.199 297.411 610.634 100.087 524.197" stroke="#2F2B16" stroke-width="0.25" stroke-miterlimit="10"/>
<path d="M2296.27 593.93C1849.04 306.385 1680.76 734.702 1326.21 748.416C1088.51 757.598 1018.66 658.895 809.877 628.88C468.233 579.742 296.485 607.478 99.5419 523.177" stroke="#312D17" stroke-width="0.25" stroke-miterlimit="10"/>
<path d="M2296.34 598.889C1852.53 307.453 1681.24 733.515 1326.14 749.65C1088.58 760.469 1017.19 662.454 808.928 631.704C467.782 581.284 295.631 604.299 98.9958 521.967" stroke="#332F19" stroke-width="0.25" stroke-miterlimit="10"/>
<path d="M2296.41 603.848C1856.09 308.52 1681.73 732.329 1326.04 750.955C1088.62 763.364 1015.79 666.084 808.097 634.574C467.354 582.85 294.753 601.143 98.4736 520.804" stroke="#35301A" stroke-width="0.25" stroke-miterlimit="10"/>
<path d="M2296.48 608.76C1859.65 309.564 1682.21 731.095 1326.11 752.141C1088.86 766.164 1014.55 669.595 807.385 637.351C467.046 584.369 293.994 597.964 97.9993 519.737" stroke="#37321C" stroke-width="0.25" stroke-miterlimit="10"/>
<path d="M2296.55 613.719C1863.28 310.632 1682.68 729.885 1325.9 753.327C1088.79 768.963 1013.06 673.131 806.318 640.127C466.5 585.911 293.021 594.808 97.3826 518.621" stroke="#39341D" stroke-width="0.25" stroke-miterlimit="10"/>
<path d="M2296.62 618.654C1866.77 311.676 1683.18 728.675 1325.83 754.632C1088.86 771.834 1011.68 676.737 805.558 643.116C466.073 587.548 292.143 591.724 96.8602 517.601" stroke="#3B361F" stroke-width="0.25" stroke-miterlimit="10"/>
<path d="M2296.67 623.589C1870.33 312.767 1683.68 727.442 1325.76 755.866C1088.96 774.682 1010.21 680.32 804.704 645.845C465.646 588.9 291.265 588.473 96.3147 516.391" stroke="#3D3820" stroke-width="0.25" stroke-miterlimit="10"/>
<path d="M2296.74 628.548C1873.88 313.811 1684.15 726.231 1325.69 757.124C1089.03 777.505 1008.93 683.879 803.731 648.668C465.219 590.538 290.411 585.294 95.7454 515.276" stroke="#3E3A21" stroke-width="0.25" stroke-miterlimit="10"/>
<path d="M2296.81 633.483C1877.51 314.855 1684.65 724.998 1325.62 758.357C1089.1 780.352 1007.56 687.438 803.02 651.587C464.792 591.985 289.534 582.114 95.2474 514.161" stroke="#403C23" stroke-width="0.25" stroke-miterlimit="10"/>
<path d="M2296.88 638.418C1881.03 315.923 1685.15 723.835 1325.55 759.615C1089.17 783.176 1006.2 691.021 802.166 654.315C464.365 593.598 288.68 578.959 94.7019 513.046" stroke="#423D24" stroke-width="0.25" stroke-miterlimit="10"/>
<path d="M2296.95 643.377C1884.63 316.967 1685.62 722.482 1325.47 760.849C1089.27 785.999 1004.83 694.58 801.312 657.162C463.938 595.117 287.92 575.779 94.1558 511.93" stroke="#443F26" stroke-width="0.25" stroke-miterlimit="10"/>
<path d="M2297.02 648.312C1888.14 318.035 1686.12 721.272 1325.4 762.083C1089.34 788.799 1003.45 698.139 800.457 660.057C463.487 596.73 286.924 572.624 93.634 510.815" stroke="#464127" stroke-width="0.25" stroke-miterlimit="10"/>
<path d="M2297.1 653.248C1891.75 319.126 1686.62 720.11 1325.33 763.34C1089.43 791.623 1002.07 701.65 799.603 662.81C463.084 598.178 286.069 569.444 93.088 509.7" stroke="#484328" stroke-width="0.25" stroke-miterlimit="10"/>
<path d="M2297.17 658.206C1895.26 320.146 1687.12 718.757 1325.26 764.574C1089.5 794.422 1000.7 705.257 798.749 665.633C462.657 599.696 285.192 566.289 92.5425 508.585" stroke="#4A452A" stroke-width="0.25" stroke-miterlimit="10"/>
<path d="M2297.24 663.165C1898.87 321.214 1687.71 717.5 1325.19 765.831C1089.57 797.246 999.323 708.887 797.895 668.551C462.23 601.31 284.314 563.204 92.0203 507.565" stroke="#4C472B" stroke-width="0.25" stroke-miterlimit="10"/>
<path d="M2297.31 668.101C1902.38 322.258 1688.11 716.219 1325.12 767.065C1089.67 800.046 997.946 712.375 797.041 671.304C461.802 602.757 283.46 559.93 91.4746 506.355" stroke="#4D492D" stroke-width="0.25" stroke-miterlimit="10"/>
<path d="M2297.45 673.036C1905.98 323.326 1688.68 714.937 1325.12 768.299C1089.81 802.845 996.642 715.934 796.282 674.127C461.352 604.275 282.582 556.774 91.0005 505.24" stroke="#4F4A2E" stroke-width="0.25" stroke-miterlimit="10"/>
<path d="M2297.45 677.971C1909.52 324.441 1689.13 713.68 1325 769.557C1089.86 805.645 995.218 719.493 795.38 677.022C460.853 605.841 281.751 553.642 90.4307 504.196" stroke="#514C30" stroke-width="0.25" stroke-miterlimit="10"/>
<path d="M2297.45 682.93C1913.1 325.437 1689.56 712.375 1324.86 770.719C1089.84 808.421 993.819 723.028 794.503 679.774C460.498 607.289 280.85 550.439 89.8618 503.009" stroke="#534E31" stroke-width="0.25" stroke-miterlimit="10"/>
<path d="M2297.57 687.865C1916.61 326.505 1690.2 711.094 1324.83 772.048C1089.95 811.221 992.443 726.587 793.648 682.598C460.071 608.807 279.972 547.355 89.3396 501.894" stroke="#555032" stroke-width="0.25" stroke-miterlimit="10"/>
<path d="M2297.64 692.8C1920.22 327.573 1690.61 709.812 1324.72 773.282C1090.02 813.997 991.019 730.146 792.747 685.492C459.644 610.326 279.118 544.104 88.7941 500.803" stroke="#575234" stroke-width="0.25" stroke-miterlimit="10"/>
<path d="M2297.71 697.759C1923.73 328.617 1691.1 708.507 1324.71 774.516C1090.17 816.773 989.714 733.682 791.964 688.268C459.217 611.844 278.24 540.925 88.248 499.687" stroke="#595435" stroke-width="0.25" stroke-miterlimit="10"/>
<path d="M2297.78 702.694C1927.34 329.685 1691.6 707.202 1324.71 775.773C1090.36 819.573 988.433 737.241 791.205 691.092C458.742 613.339 277.362 537.769 87.7262 498.572" stroke="#5B5637" stroke-width="0.25" stroke-miterlimit="10"/>
<path d="M2297.86 707.629C1930.85 330.729 1692.1 705.874 1324.53 777.054C1090.31 822.373 986.938 740.847 790.232 694.01C458.363 614.952 276.508 534.685 87.1807 497.552" stroke="#5C5738" stroke-width="0.25" stroke-miterlimit="10"/>
<path d="M2297.93 712.588C1934.45 331.796 1692.58 704.569 1324.45 778.264C1090.4 825.101 985.562 744.335 789.377 696.739C457.935 616.352 275.63 531.41 86.6346 496.342" stroke="#5E593A" stroke-width="0.25" stroke-miterlimit="10"/>
<path d="M2298 717.524C1937.97 332.864 1693 703.288 1324.38 779.498C1090.48 827.877 984.21 747.894 788.524 699.586C457.508 617.847 274.776 528.255 86.1129 495.227" stroke="#605B3B" stroke-width="0.25" stroke-miterlimit="10"/>
<path d="M2298.07 722.483C1941.57 333.908 1693.57 701.935 1324.31 780.732C1090.55 830.558 982.834 751.429 787.693 702.433C457.082 619.389 273.899 525.099 85.5674 494.135" stroke="#625D3C" stroke-width="0.25" stroke-miterlimit="10"/>
<path d="M2298.14 727.418C1945.08 334.976 1694.07 700.583 1324.24 781.989C1090.64 833.405 981.458 754.965 786.839 705.233C456.655 620.86 273.021 521.919 85.0219 492.996" stroke="#645F3E" stroke-width="0.25" stroke-miterlimit="10"/>
<path d="M2298.19 732.353C1948.64 336.114 1694.57 699.135 1324.17 783.223C1090.71 836.158 980.153 758.524 785.985 708.057C456.203 622.355 272.166 518.74 84.4995 491.881" stroke="#66613F" stroke-width="0.25" stroke-miterlimit="10"/>
<path d="M2298.26 737.288C1952.2 337.087 1695.07 697.925 1324.1 784.481C1090.78 838.91 978.705 762.059 785.131 710.928C455.8 623.85 271.312 515.584 83.8827 490.766" stroke="#686241" stroke-width="0.25" stroke-miterlimit="10"/>
<path d="M2298.33 742.247C1955.81 338.107 1695.54 696.573 1324.03 785.714C1090.88 841.662 977.329 765.594 784.276 713.727C455.373 625.345 270.411 512.405 83.408 489.651" stroke="#6A6442" stroke-width="0.25" stroke-miterlimit="10"/>
<path d="M2298.4 747.182C1959.32 339.08 1696.04 695.22 1323.96 786.972C1090.95 844.415 975.954 769.129 783.423 716.551C454.947 626.84 269.557 509.249 82.8867 488.536" stroke="#6C6644" stroke-width="0.25" stroke-miterlimit="10"/>
<path d="M2298.47 752.117C1962.93 340.267 1696.54 693.868 1323.89 788.206C1091.02 847.167 974.578 772.665 782.569 719.398C454.52 628.334 268.68 506.094 82.3412 487.444" stroke="#6D6845" stroke-width="0.25" stroke-miterlimit="10"/>
<path d="M2298.54 757.076C1966.39 341.311 1697.01 692.492 1323.81 789.44C1091.09 849.896 973.225 776.2 781.715 722.198C454.092 629.806 267.825 502.891 81.8188 486.306" stroke="#6F6A46" stroke-width="0.25" stroke-miterlimit="10"/>
<path d="M2298.61 762.011C1970.04 342.378 1697.51 691.139 1323.74 790.697C1091.23 852.648 971.849 779.735 780.884 725.021C453.689 631.3 266.947 499.735 81.2728 485.214" stroke="#716C48" stroke-width="0.25" stroke-miterlimit="10"/>
<path d="M2298.69 766.947C1973.65 343.446 1697.98 689.763 1323.58 791.931C1091.07 855.377 970.378 783.271 779.935 727.869C453.262 632.771 266.069 496.556 80.7273 484.075" stroke="#736E49" stroke-width="0.25" stroke-miterlimit="10"/>
<path d="M2298.76 771.906C1977.11 344.49 1698.51 688.387 1323.65 793.26C1091.35 858.176 969.145 786.877 779.224 730.763C452.882 634.314 265.263 493.495 80.2294 483.031" stroke="#756F4B" stroke-width="0.25" stroke-miterlimit="10"/>
<path d="M2298.83 776.841C1980.67 345.558 1698.96 687.011 1323.53 794.422C1091.38 860.857 967.649 790.341 778.322 733.515C452.408 635.737 264.337 490.22 79.6595 481.845" stroke="#77714C" stroke-width="0.25" stroke-miterlimit="10"/>
<path d="M2298.87 781.8C1984.28 346.625 1699.43 685.611 1323.46 795.656C1091.45 863.562 966.368 793.877 777.468 736.339C451.98 637.208 263.459 487.065 79.1377 480.73" stroke="#79734E" stroke-width="0.25" stroke-miterlimit="10"/>
<path d="M2298.95 786.735C1987.79 347.788 1699.91 684.235 1323.39 796.914C1091.52 866.291 964.992 797.412 776.661 739.091C451.625 638.679 262.605 483.885 78.5685 479.615" stroke="#7B754F" stroke-width="0.25" stroke-miterlimit="10"/>
<path d="M2299.02 791.67C1991.4 348.737 1700.38 682.835 1323.29 798.147C1091.59 869.019 963.616 800.947 775.759 742.01C451.15 640.15 261.822 480.706 78.0461 478.499" stroke="#7C7750" stroke-width="0.25" stroke-miterlimit="10"/>
<path d="M2299.09 796.605C1994.93 349.781 1700.86 681.435 1323.22 799.405C1091.66 871.724 962.24 804.459 774.905 744.833C450.723 641.621 260.873 477.55 77.5006 477.384" stroke="#7E7952" stroke-width="0.25" stroke-miterlimit="10"/>
<path d="M2299.16 801.564C1998.49 350.754 1701.28 680.035 1323.15 800.639C1091.73 874.453 960.888 807.994 774.075 747.657C450.296 643.092 259.996 474.371 76.9551 476.269" stroke="#807B53" stroke-width="0.25" stroke-miterlimit="10"/>
<path d="M2299.23 806.499C2002.05 351.917 1701.8 678.635 1323.08 801.754C1091.78 877.039 959.512 811.387 773.221 750.362C449.893 644.445 259.118 471.097 76.4329 475.13" stroke="#827C55" stroke-width="0.25" stroke-miterlimit="10"/>
<path d="M2299.3 811.458C2005.63 352.961 1702.26 677.212 1323.01 803.154C1091.85 879.886 958.136 815.017 772.367 753.327C449.466 646.035 258.264 468.036 75.8873 474.062" stroke="#847E56" stroke-width="0.25" stroke-miterlimit="10"/>
<path d="M2299.37 816.393C2009.17 354.028 1702.73 675.788 1322.94 804.364C1091.92 882.662 956.783 818.6 771.513 756.151C449.062 647.506 257.386 464.88 75.3418 472.947" stroke="#868058" stroke-width="0.25" stroke-miterlimit="10"/>
<path d="M2299.44 821.329C2012.75 355.072 1703.2 674.364 1322.86 805.526C1091.97 885.296 955.407 822.135 770.658 758.974C448.635 648.929 256.508 461.701 74.8195 471.832" stroke="#888259" stroke-width="0.25" stroke-miterlimit="10"/>
<path d="M2299.52 826.288C2016.28 356.14 1703.66 672.941 1322.79 806.855C1092.04 888.001 954.031 825.6 769.805 761.774C448.208 650.424 255.654 458.545 74.3928 470.717" stroke="#8A845A" stroke-width="0.25" stroke-miterlimit="10"/>
<path d="M2299.59 831.222C2019.84 357.208 1704.08 671.517 1322.72 808.089C1092.09 890.682 952.608 829.135 768.95 764.621C447.805 651.871 254.705 455.366 73.7285 469.602" stroke="#8C865C" stroke-width="0.25" stroke-miterlimit="10"/>
<path d="M2299.63 836.158C2023.4 358.252 1704.56 670.07 1322.65 809.346C1092.21 893.316 951.303 832.646 768.096 767.564C447.402 653.342 253.922 452.186 73.2067 468.605" stroke="#8D875D" stroke-width="0.25" stroke-miterlimit="10"/>
<path d="M2299.82 841.117C2026.98 359.319 1705.03 668.646 1322.58 810.58C1092.21 895.997 949.951 836.158 767.242 770.245C446.88 654.79 253.044 449.031 72.6611 467.371" stroke="#8F895F" stroke-width="0.25" stroke-miterlimit="10"/>
<path d="M2299.82 846.052C2030.52 360.387 1705.48 667.199 1322.51 811.838C1092.21 898.773 948.574 839.693 766.412 773.116C446.571 656.237 252.166 445.851 72.02 466.233" stroke="#918B60" stroke-width="0.25" stroke-miterlimit="10"/>
<path d="M2299.82 850.987C2034.1 361.431 1705.89 665.752 1322.34 813.024C1092.21 901.43 947.127 843.157 765.463 775.892C446.049 657.637 251.217 442.648 71.4983 465.07" stroke="#938D62" stroke-width="0.25" stroke-miterlimit="10"/>
<path d="M2299.82 855.946C2037.54 362.428 1706.26 664.304 1322.34 814.329C1092.33 904.159 945.822 846.716 764.798 778.739C445.741 659.132 250.434 439.516 71.0474 464.026" stroke="#958F63" stroke-width="0.25" stroke-miterlimit="10"/>
<path d="M2299.99 860.881C2041.22 363.543 1706.81 662.857 1322.34 815.563C1092.44 906.864 944.541 850.228 763.897 781.586C445.385 660.579 249.604 436.36 70.5493 462.911" stroke="#979164" stroke-width="0.25" stroke-miterlimit="10"/>
<path d="M2300.06 865.816C2044.75 364.61 1707.24 661.41 1322.34 816.797C1092.56 909.545 943.236 853.739 763.114 784.433C445.053 662.026 248.821 433.276 70.0983 461.748" stroke="#999366" stroke-width="0.25" stroke-miterlimit="10"/>
<path d="M2300.13 870.775C2048.34 365.678 1707.69 659.939 1322.15 818.054C1092.49 912.226 941.765 857.251 762.236 787.209C444.507 663.474 247.824 430.025 69.434 460.68" stroke="#9B9467" stroke-width="0.25" stroke-miterlimit="10"/>
<path d="M2300.2 875.711C2051.87 366.722 1708.12 658.42 1322.08 819.288C1092.54 914.907 940.365 860.763 761.287 790.08C444.104 664.921 246.97 426.846 68.8884 459.565" stroke="#9C9669" stroke-width="0.25" stroke-miterlimit="10"/>
<path d="M2300.27 880.646C2055.45 367.79 1708.54 656.996 1322.01 820.546C1092.59 917.588 939.037 864.274 760.433 792.904C443.701 666.345 246.093 423.667 68.3667 458.355" stroke="#9E986A" stroke-width="0.25" stroke-miterlimit="10"/>
<path d="M2300.35 885.605C2058.99 368.834 1708.97 655.454 1321.92 821.779C1092.63 920.27 937.685 867.786 759.627 795.68C443.297 667.911 245.215 420.511 67.8212 457.335" stroke="#A09A6C" stroke-width="0.25" stroke-miterlimit="10"/>
<path d="M2300.39 890.54C2062.57 369.902 1709.4 654.054 1321.84 823.013C1092.66 922.951 936.308 871.297 758.748 798.575C442.894 669.216 244.361 417.332 67.2751 456.22" stroke="#A29C6D" stroke-width="0.25" stroke-miterlimit="10"/>
<path d="M2300.46 895.475C2066.11 370.969 1709.82 652.583 1321.77 824.294C1092.71 925.655 935.051 874.809 757.895 801.422C442.491 670.663 243.483 414.176 66.7533 455.105" stroke="#A49E6E" stroke-width="0.25" stroke-miterlimit="10"/>
<path d="M2300.54 900.434C2069.69 372.013 1710.25 651.088 1321.7 825.505C1092.73 928.289 933.604 878.297 757.04 804.15C442.134 672.087 242.605 410.996 66.2073 453.989" stroke="#A6A070" stroke-width="0.25" stroke-miterlimit="10"/>
<path d="M2300.61 905.369C2073.22 373.081 1710.65 649.617 1321.63 826.881C1092.78 931.089 932.251 881.927 756.186 807.164C441.707 673.629 241.75 407.959 65.78 452.993" stroke="#A8A171" stroke-width="0.25" stroke-miterlimit="10"/>
<path d="M2300.68 910.304C2076.78 374.078 1711.08 648.123 1321.56 827.996C1092.8 933.652 930.875 885.32 755.308 809.869C441.304 675.029 240.873 404.661 65.14 451.759" stroke="#AAA373" stroke-width="0.25" stroke-miterlimit="10"/>
<path d="M2300.75 915.263C2080.34 375.193 1711.44 646.557 1321.49 829.253C1092.82 936.333 929.523 888.831 754.454 812.645C440.901 676.381 240.019 401.506 64.5939 450.644" stroke="#ABA574" stroke-width="0.25" stroke-miterlimit="10"/>
<path d="M2300.82 920.198C2083.92 376.26 1711.89 645.133 1321.42 830.487C1092.85 938.966 928.171 892.319 753.624 815.539C440.521 677.805 239.141 398.326 64.0483 449.624" stroke="#ADA775" stroke-width="0.25" stroke-miterlimit="10"/>
<path d="M2300.89 925.134C2087.36 377.304 1712.29 643.638 1321.35 831.721C1092.87 941.647 926.819 895.783 752.77 818.363C440.118 679.228 238.263 395.052 63.5266 448.437" stroke="#AFA977" stroke-width="0.25" stroke-miterlimit="10"/>
<path d="M2300.96 930.092C2091.04 378.443 1712.69 642.143 1321.27 832.978C1092.9 944.305 925.466 899.414 751.868 821.115C439.762 680.652 237.409 391.991 62.9806 447.251" stroke="#B1AB78" stroke-width="0.25" stroke-miterlimit="10"/>
<path d="M2301.03 935.028C2094.62 379.44 1713.1 640.649 1321.18 834.212C1092.9 946.962 924.09 902.807 751.062 824.01C439.335 682.147 236.531 388.812 62.5302 446.207" stroke="#B3AD7A" stroke-width="0.25" stroke-miterlimit="10"/>
<path d="M2301.08 939.963C2098.13 380.484 1713.48 639.13 1321.23 835.446C1093.04 949.62 922.856 906.318 750.325 826.857C438.955 683.476 235.724 385.561 61.9127 445.092" stroke="#B5AE7B" stroke-width="0.25" stroke-miterlimit="10"/>
<path d="M2301.15 944.922C2101.72 381.551 1713.81 637.635 1321.06 836.704C1092.97 952.301 921.409 909.806 749.282 829.586C438.481 684.852 234.704 382.382 61.2489 443.882" stroke="#B7B07D" stroke-width="0.25" stroke-miterlimit="10"/>
<path d="M2301.22 949.857C2105.28 382.595 1714.26 636.117 1320.99 837.937C1092.99 954.958 920.033 913.318 748.523 832.504C438.172 686.299 233.921 379.321 60.8218 442.862" stroke="#B9B27E" stroke-width="0.25" stroke-miterlimit="10"/>
<path d="M2301.3 954.816C2108.84 383.663 1714.64 634.693 1320.92 839.195C1092.99 957.616 918.704 916.805 747.669 835.327C437.793 687.723 233.067 376.071 60.2999 441.747" stroke="#BBB47F" stroke-width="0.25" stroke-miterlimit="10"/>
<path d="M2301.37 959.751C2112.39 384.731 1715.02 633.08 1320.85 840.429C1093.09 960.273 917.352 920.293 746.815 838.056C437.39 689.123 232.19 372.962 59.7544 440.631" stroke="#BCB681" stroke-width="0.25" stroke-miterlimit="10"/>
<path d="M2301.44 964.686C2115.95 385.751 1715.42 631.561 1320.78 841.686C1093.01 962.93 916 923.805 745.961 840.998C437.034 690.546 231.312 369.807 59.2089 439.516" stroke="#BEB882" stroke-width="0.25" stroke-miterlimit="10"/>
<path d="M2301.51 969.645C2119.51 386.842 1715.78 629.948 1320.71 842.92C1092.94 965.588 914.671 927.293 745.106 843.822C436.678 691.97 230.458 366.627 58.6866 438.401" stroke="#C0B984" stroke-width="0.25" stroke-miterlimit="10"/>
<path d="M2301.58 974.58C2123.07 387.934 1716.18 628.524 1320.61 844.154C1093.04 968.221 913.319 930.78 744.276 846.645C436.275 693.346 229.58 363.472 58.1411 437.286" stroke="#C2BB85" stroke-width="0.25" stroke-miterlimit="10"/>
<path d="M2301.65 979.515C2126.63 388.954 1716.51 627.006 1320.54 845.411C1093.06 970.879 911.895 934.268 743.445 849.469C435.895 694.746 228.607 360.292 57.595 436.171" stroke="#C4BD87" stroke-width="0.25" stroke-miterlimit="10"/>
<path d="M2301.72 984.474C2130.19 390.022 1716.89 625.463 1320.47 846.645C1093.06 973.536 910.78 937.448 742.568 852.292C435.824 695.552 227.848 357.089 57.0732 435.055" stroke="#C6BF88" stroke-width="0.25" stroke-miterlimit="10"/>
<path d="M2301.79 989.41C2133.75 391.066 1717.25 624.016 1320.4 847.903C1093.06 976.194 909.427 940.983 741.713 855.139C435.396 697.047 226.875 353.957 56.5272 433.94" stroke="#C8C189" stroke-width="0.25" stroke-miterlimit="10"/>
<path d="M2301.84 994.345C2137.31 392.134 1717.61 622.403 1320.33 849.136C1093.06 978.851 908.051 944.518 740.859 857.963C435.017 698.518 226.234 350.801 55.9817 432.825" stroke="#CAC38B" stroke-width="0.25" stroke-miterlimit="10"/>
<path d="M2301.91 999.304C2140.86 393.201 1717.56 620.172 1320.25 850.37C1092.82 981.081 906.699 948.054 740.005 860.786C434.566 700.013 225.238 347.598 55.4124 431.71" stroke="#CBC58C" stroke-width="0.25" stroke-miterlimit="10"/>
<path d="M2301.98 1004.24C2144.42 394.245 1717.99 618.796 1320.18 851.628C1092.87 983.834 905.323 951.589 739.152 863.61C434.163 701.484 224.36 344.443 54.9144 430.642" stroke="#CDC68E" stroke-width="0.25" stroke-miterlimit="10"/>
<path d="M2302.05 1009.17C2147.98 395.313 1718.56 617.444 1320.11 852.98C1092.94 986.705 903.948 955.243 738.298 866.552C433.76 703.074 223.459 341.406 54.3689 429.598" stroke="#CFC88F" stroke-width="0.25" stroke-miterlimit="10"/>
<path d="M2302.2 1014.13C2151.54 396.357 1718.89 616.091 1319.97 854.119C1092.92 989.362 902.524 958.66 737.372 869.281C433.332 704.45 222.628 338.108 53.8466 428.27" stroke="#D1CA91" stroke-width="0.25" stroke-miterlimit="10"/>
<path d="M2302.2 1019.07C2155.1 397.425 1719.34 614.715 1319.97 855.353C674.429 1244.31 313.093 284.912 53.301 427.249" stroke="#D3CC92" stroke-width="0.25" stroke-miterlimit="10"/>
<path style="mix-blend-mode:color-dodge" d="M1206.11 260.663C1365.75 260.663 1495.16 202.312 1495.16 130.332C1495.16 58.3514 1365.75 0 1206.11 0C1046.48 0 917.067 58.3514 917.067 130.332C917.067 202.312 1046.48 260.663 1206.11 260.663Z" fill="url(#paint0_radial_1_100391)"/>
<path style="mix-blend-mode:color-dodge" d="M999.702 1113.65C1303.26 1113.65 1549.35 1002.7 1549.35 865.827C1549.35 728.956 1303.26 618 999.702 618C696.142 618 450.059 728.956 450.059 865.827C450.059 1002.7 696.142 1113.65 999.702 1113.65Z" fill="url(#paint1_radial_1_100391)"/>
<path style="mix-blend-mode:color-dodge" d="M1917.82 666.369C2077.46 666.369 2206.87 608.017 2206.87 536.037C2206.87 464.057 2077.46 405.705 1917.82 405.705C1758.19 405.705 1628.78 464.057 1628.78 536.037C1628.78 608.017 1758.19 666.369 1917.82 666.369Z" fill="url(#paint2_radial_1_100391)"/>
<path style="mix-blend-mode:color-dodge" d="M1494.58 699.505C1532.93 638.596 1454.52 520.256 1319.43 435.184C1184.35 350.113 1043.75 330.525 1005.4 391.435C967.046 452.344 1045.46 570.684 1180.54 655.756C1315.62 740.827 1456.22 760.415 1494.58 699.505Z" fill="url(#paint3_radial_1_100391)"/>
<path style="mix-blend-mode:color-dodge" d="M595.162 616.281C737.999 616.281 853.792 563.443 853.792 498.264C853.792 433.085 737.999 380.246 595.162 380.246C452.325 380.246 336.533 433.085 336.533 498.264C336.533 563.443 452.325 616.281 595.162 616.281Z" fill="url(#paint4_radial_1_100391)"/>
<path style="mix-blend-mode:color-dodge" d="M1867.06 692.731C1880.03 684.857 1844.86 603.213 1788.51 510.374C1732.15 417.536 1675.95 348.659 1662.98 356.533C1650.01 364.407 1685.18 446.051 1741.54 538.89C1797.89 631.728 1854.09 700.605 1867.06 692.731Z" fill="url(#paint5_radial_1_100391)"/>
<path d="M-45.4672 441.462C71.3798 470.669 21.2958 393.154 362.892 455.698C615.567 501.965 802.237 680.486 1017.71 708.365C1364.1 753.161 1567.21 480.943 1950.78 488.322" stroke="#383302" stroke-width="0.25" stroke-miterlimit="10"/>
<path d="M-50.0938 437.452C62.9335 466.636 12.7071 402.17 360.496 458.687C614.973 500.091 799.817 683.808 1017.35 711.71C1359 755.771 1569.32 486.305 1953.77 493.423" stroke="#393404" stroke-width="0.25" stroke-miterlimit="10"/>
<path d="M-54.6967 433.442C54.4396 462.579 4.26068 411.163 358.123 461.677C614.356 498.287 797.444 687.082 1017.05 715.056C1354.06 758.334 1571.51 491.454 1956.8 498.43" stroke="#3A3506" stroke-width="0.25" stroke-miterlimit="10"/>
<path d="M-59.3234 429.408C46.0643 458.545 -4.30444 420.25 355.679 464.667C613.715 496.508 794.953 690.356 1016.67 718.378C1349.03 760.896 1573.59 496.674 1959.75 503.46" stroke="#3B3609" stroke-width="0.25" stroke-miterlimit="10"/>
<path d="M-63.9495 425.399C37.6422 454.488 -12.9164 429.409 353.26 467.656C612.957 494.705 792.533 693.631 1016.29 721.7C1344.05 763.482 1575.73 501.918 1962.71 508.49" stroke="#3C370B" stroke-width="0.25" stroke-miterlimit="10"/>
<path d="M-68.5762 421.389C29.1957 450.454 -21.5527 438.615 350.839 470.646C612.339 493.139 790.113 696.905 1015.98 725.045C1339.09 766.045 1577.89 507.161 1965.75 513.544" stroke="#3D380D" stroke-width="0.25" stroke-miterlimit="10"/>
<path d="M-73.1786 417.355C20.7498 446.397 -30.2121 447.892 348.443 473.612C611.652 491.525 787.693 700.179 1015.62 728.367C1334.13 768.702 1580.02 512.452 1968.74 518.574" stroke="#3E3A0F" stroke-width="0.25" stroke-miterlimit="10"/>
<path d="M-77.8047 413.345C12.3514 442.363 -38.8952 457.216 346.024 476.601C610.916 489.959 785.274 703.501 1015.27 731.688C1329.15 771.194 1582.16 517.625 1971.73 523.628" stroke="#3F3B11" stroke-width="0.25" stroke-miterlimit="10"/>
<path d="M-82.4314 409.288C3.88119 438.259 -47.5789 466.565 343.627 479.543C610.181 488.393 782.83 706.704 1015.05 734.986C1324.31 773.732 1584.46 522.821 1974.86 528.563" stroke="#403C14" stroke-width="0.25" stroke-miterlimit="10"/>
<path d="M-86.9392 405.302C-4.44641 434.272 -56.0963 476.079 341.302 482.58C609.54 486.97 780.505 710.026 1014.67 738.356C1319.31 776.319 1586.45 528.112 1977.92 533.688" stroke="#413D16" stroke-width="0.25" stroke-miterlimit="10"/>
<path d="M-91.6842 401.292C-13.0112 430.239 -64.8747 474.205 338.764 485.57C608.568 493.163 777.966 713.348 1014.22 741.677C1314.2 778.929 1588.54 533.332 1980.7 538.742" stroke="#423E18" stroke-width="0.25" stroke-miterlimit="10"/>
<path d="M-96.2871 397.282C-21.4101 426.182 -73.7481 495.179 336.391 488.536C607.95 484.17 775.617 716.076 1013.91 745.023C1309.36 780.874 1590.72 538.599 1983.73 543.772" stroke="#433F1A" stroke-width="0.25" stroke-miterlimit="10"/>
<path d="M-100.913 393.249C-29.7375 422.148 -82.4788 504.765 333.971 491.525C607.191 482.818 773.197 719.303 1013.56 748.345C1304.38 783.437 1592.81 543.819 1986.65 548.826" stroke="#44401C" stroke-width="0.25" stroke-miterlimit="10"/>
<path d="M-105.516 389.239C-38.2787 418.091 -91.2809 514.517 331.575 494.515C606.456 481.513 770.777 722.601 1013.2 751.666C1299.4 785.999 1594.97 549.063 1989.71 553.856" stroke="#45411F" stroke-width="0.25" stroke-miterlimit="10"/>
<path d="M-110.143 385.229C-46.6065 414.034 -99.9172 524.268 329.154 497.505C605.696 480.255 768.357 725.852 1012.87 755.012C1294.44 788.562 1597.1 554.283 1992.72 558.91" stroke="#464221" stroke-width="0.25" stroke-miterlimit="10"/>
<path d="M-114.769 381.196C-55.1474 410 -108.648 534.091 326.735 500.494C604.961 479.021 765.937 729.126 1012.51 758.334C1289.46 791.148 1599.26 559.526 1995.69 563.94" stroke="#474323" stroke-width="0.25" stroke-miterlimit="10"/>
<path d="M-119.395 377.186C-63.5933 405.966 -117.355 543.938 324.268 503.46C604.226 477.835 763.446 732.377 1012.11 761.655C1284.43 793.71 1601.33 564.723 1998.63 568.97" stroke="#484525" stroke-width="0.25" stroke-miterlimit="10"/>
<path d="M-123.998 373.176C-72.0397 401.909 -126.062 553.856 322.037 506.449C603.585 476.649 761.192 735.651 1011.94 765.072C1279.64 796.392 1603.65 570.109 2001.81 574.118" stroke="#494627" stroke-width="0.25" stroke-miterlimit="10"/>
<path d="M-128.625 369.142C-80.4624 397.876 -134.746 563.845 319.522 509.439C602.754 475.534 758.653 738.925 1011.54 768.323C1274.58 798.883 1605.72 575.234 2004.73 579.054" stroke="#4A4729" stroke-width="0.25" stroke-miterlimit="10"/>
<path d="M-133.251 365.132C-88.9083 393.818 -143.429 573.929 317.102 512.429C602.019 474.466 756.234 742.223 1011.14 771.644C1269.58 801.493 1607.81 580.477 2007.6 584.202" stroke="#4B482C" stroke-width="0.25" stroke-miterlimit="10"/>
<path d="M-137.854 361.123C-97.331 389.785 -152.089 583.918 314.682 515.347C601.307 473.279 753.814 745.498 1010.81 774.895C1264.67 804.008 1609.94 585.65 2010.68 589.067" stroke="#4C492E" stroke-width="0.25" stroke-miterlimit="10"/>
<path d="M-142.48 357.089C-105.777 385.727 -160.748 594.049 312.286 518.432C600.62 472.33 751.37 748.843 1010.45 778.359C1259.57 806.831 1612.08 590.917 2013.67 594.239" stroke="#4D4A30" stroke-width="0.25" stroke-miterlimit="10"/>
<path d="M-147.107 353.079C-114.2 381.694 -169.361 604.204 309.866 521.374C599.908 471.263 748.95 752.094 1010.12 781.634C1254.65 809.299 1614.16 596.185 2016.66 599.222" stroke="#4E4B32" stroke-width="0.25" stroke-miterlimit="10"/>
<path d="M-151.733 349.069C-122.646 377.542 -177.973 614.407 307.446 524.363C599.267 470.242 746.364 755.914 1009.71 784.955C1249.58 812.36 1616.3 601.428 2019.6 604.252" stroke="#4F4C34" stroke-width="0.25" stroke-miterlimit="10"/>
<path d="M-156.336 345.036C-131.068 373.698 -186.585 624.633 305.05 527.353C598.579 469.27 743.968 759.188 1009.43 788.348C1244.64 815.017 1618.48 606.672 2022.67 609.306" stroke="#504D37" stroke-width="0.25" stroke-miterlimit="10"/>
<path d="M-160.962 341.026C-139.61 369.498 -195.15 634.93 302.63 530.343C597.914 468.297 741.547 762.462 1009.07 791.623C1239.68 817.509 1620.62 611.915 2025.65 614.336" stroke="#514E39" stroke-width="0.25" stroke-miterlimit="10"/>
<path d="M-165.589 337.016C-147.937 365.488 -203.691 645.252 300.234 533.308C597.251 467.348 739.151 765.831 1008.74 794.944C1234.7 820.095 1622.78 617.135 2028.64 619.366" stroke="#52503B" stroke-width="0.25" stroke-miterlimit="10"/>
<path d="M-170.191 332.983C-156.383 361.455 -212.233 655.668 297.814 536.298C596.752 466.422 736.731 769.011 1008.39 798.29C1229.81 822.657 1624.91 622.379 2031.73 624.419" stroke="#53513D" stroke-width="0.25" stroke-miterlimit="10"/>
<path d="M-174.722 328.973C-164.71 357.445 -220.655 665.894 295.489 539.287C596.112 465.497 734.407 772.285 1008.15 801.612C1224.86 825.338 1627.14 627.623 2034.74 629.449" stroke="#54523F" stroke-width="0.25" stroke-miterlimit="10"/>
<path d="M-179.468 324.963C-173.276 353.435 -229.291 676.429 292.974 542.277C595.376 464.595 731.891 775.583 1007.67 804.933C1219.78 827.806 1629.28 632.866 2037.61 634.503" stroke="#555342" stroke-width="0.25" stroke-miterlimit="10"/>
<path d="M-184.071 320.929C-181.698 349.402 -237.524 687.557 290.577 545.267C594.901 464.097 729.495 778.857 1007.37 808.279C1214.82 830.368 1631.34 638.086 2040.63 639.533" stroke="#565444" stroke-width="0.25" stroke-miterlimit="10"/>
<path d="M-188.673 316.92C-190.121 345.392 -246.16 697.356 288.205 548.233C594.261 462.816 727.123 782.132 1007.08 811.601C1209.93 832.955 1633.43 643.33 2043.69 644.587" stroke="#575546" stroke-width="0.25" stroke-miterlimit="10"/>
</g>
<defs>
<radialGradient id="paint0_radial_1_100391" cx="0" cy="0" r="1" gradientUnits="userSpaceOnUse" gradientTransform="translate(1204.11 129.389) scale(288.744 130.793)">
<stop stop-color="#D8D8D8"/>
<stop offset="1"/>
</radialGradient>
<radialGradient id="paint1_radial_1_100391" cx="0" cy="0" r="1" gradientUnits="userSpaceOnUse" gradientTransform="translate(997.923 867.76) scale(549.053 248.705)">
<stop stop-color="#D8D8D8"/>
<stop offset="0.05" stop-color="#BEBEBE"/>
<stop offset="0.16" stop-color="#8C8C8C"/>
<stop offset="0.27" stop-color="#616161"/>
<stop offset="0.38" stop-color="#3E3E3E"/>
<stop offset="0.5" stop-color="#232323"/>
<stop offset="0.61" stop-color="#0F0F0F"/>
<stop offset="0.73" stop-color="#040404"/>
<stop offset="0.85"/>
</radialGradient>
<radialGradient id="paint2_radial_1_100391" cx="0" cy="0" r="1" gradientUnits="userSpaceOnUse" gradientTransform="translate(371260 20377.7) scale(41385.5 18660.9)">
<stop stop-color="#D8D8D8"/>
<stop offset="1"/>
</radialGradient>
<radialGradient id="paint3_radial_1_100391" cx="0" cy="0" r="1" gradientUnits="userSpaceOnUse" gradientTransform="translate(1248.21 545.855) rotate(32.2017) scale(288.749 130.79)">
<stop stop-color="#696969"/>
<stop offset="1"/>
</radialGradient>
<radialGradient id="paint4_radial_1_100391" cx="0" cy="0" r="1" gradientUnits="userSpaceOnUse" gradientTransform="translate(594.282 498.264) scale(258.441 118.017)">
<stop stop-color="#DBDBDB"/>
<stop offset="1"/>
</radialGradient>
<radialGradient id="paint5_radial_1_100391" cx="0" cy="0" r="1" gradientUnits="userSpaceOnUse" gradientTransform="translate(1759.42 521.971) rotate(58.7417) scale(196.502 27.6262)">
<stop stop-color="#EDEDED"/>
<stop offset="1"/>
</radialGradient>
</defs>
</svg>
