<svg width="44" height="57" viewBox="0 0 44 57" fill="none" xmlns="http://www.w3.org/2000/svg">
<path d="M41.1926 14.6781C37.8547 9.3296 31.9259 6.06202 25.3329 5.93714C25.0514 5.93176 24.7682 5.93176 24.4866 5.93714C17.8937 6.06202 11.9649 9.3296 8.62683 14.6781C5.2149 20.145 5.12155 26.7119 8.37708 32.2446L22.0157 55.4229C22.0218 55.4331 22.0279 55.4434 22.0343 55.4536C22.6343 56.4219 23.7093 57 24.9099 57C26.1105 57 27.1855 56.4218 27.7854 55.4536C27.7918 55.4434 27.7979 55.4331 27.804 55.4229L41.4426 32.2446C44.6979 26.7119 44.6046 20.145 41.1926 14.6781ZM24.9097 29.0728C20.645 29.0728 17.1754 25.8513 17.1754 21.8916C17.1754 17.9318 20.645 14.7103 24.9097 14.7103C29.1745 14.7103 32.6441 17.9318 32.6441 21.8916C32.6441 25.8513 29.1746 29.0728 24.9097 29.0728Z" fill="#B48A3D" fill-opacity="0.48"/>
<path d="M20.3329 1.29481C20.0514 1.28942 19.7681 1.28942 19.4866 1.29481C12.8937 1.41969 6.96486 4.68727 3.62683 10.0357C0.214897 15.5027 0.121548 22.0696 3.37708 27.6022L17.0157 50.7805C17.0218 50.7908 17.0279 50.8011 17.0343 50.8112C17.6343 51.7796 18.7093 52.3577 19.9099 52.3577C21.1105 52.3577 22.1855 51.7795 22.7854 50.8112C22.7918 50.8011 22.7979 50.7908 22.804 50.7805L36.4426 27.6022M19.9097 10.0679C24.1745 10.0679 27.6441 13.2894 27.6441 17.2492" stroke="white" stroke-width="2"/>
</svg>
